<svg width="20" height="20" viewBox="0 0 20 20" fill="none" xmlns="http://www.w3.org/2000/svg">
<path d="M10.8337 7.91667H2.50033C2.04199 7.91667 1.66699 8.29167 1.66699 8.75C1.66699 9.20834 2.04199 9.58334 2.50033 9.58334H10.8337C11.292 9.58334 11.667 9.20834 11.667 8.75C11.667 8.29167 11.292 7.91667 10.8337 7.91667ZM10.8337 4.58334H2.50033C2.04199 4.58334 1.66699 4.95834 1.66699 5.41667C1.66699 5.875 2.04199 6.25 2.50033 6.25H10.8337C11.292 6.25 11.667 5.875 11.667 5.41667C11.667 4.95834 11.292 4.58334 10.8337 4.58334ZM15.0003 11.25V8.75C15.0003 8.29167 14.6253 7.91667 14.167 7.91667C13.7087 7.91667 13.3337 8.29167 13.3337 8.75V11.25H10.8337C10.3753 11.25 10.0003 11.625 10.0003 12.0833C10.0003 12.5417 10.3753 12.9167 10.8337 12.9167H13.3337V15.4167C13.3337 15.875 13.7087 16.25 14.167 16.25C14.6253 16.25 15.0003 15.875 15.0003 15.4167V12.9167H17.5003C17.9587 12.9167 18.3337 12.5417 18.3337 12.0833C18.3337 11.625 17.9587 11.25 17.5003 11.25H15.0003ZM2.50033 12.9167H7.50033C7.95866 12.9167 8.33366 12.5417 8.33366 12.0833C8.33366 11.625 7.95866 11.25 7.50033 11.25H2.50033C2.04199 11.25 1.66699 11.625 1.66699 12.0833C1.66699 12.5417 2.04199 12.9167 2.50033 12.9167Z" fill="#212121"/>
</svg>
