<svg width="60" height="60" viewBox="0 0 60 60" fill="none" xmlns="http://www.w3.org/2000/svg">
<rect width="60" height="60" rx="30" fill="url(#paint0_linear_1555_9422)"/>
<path d="M22.7281 17.909V29.8423C22.7281 30.066 22.485 30.2077 22.2829 30.112C21.0021 29.5052 19.484 29.3203 17.8846 29.8795C15.9356 30.5777 14.4374 32.3085 14.0883 34.3448C13.927 35.2611 13.9873 36.2026 14.2643 37.0908C14.5412 37.979 15.0268 38.7879 15.6804 39.45C16.3339 40.1122 17.1365 40.6082 18.021 40.8967C18.9055 41.1851 19.8462 41.2577 20.7645 41.1082C23.6153 40.6573 25.6371 38.0392 25.6371 35.1448V28.665C25.6371 28.48 25.8075 28.342 25.9884 28.3804L37.0426 30.7301C37.177 30.7586 37.273 30.8773 37.273 31.0146V35.6603C37.273 35.884 37.03 36.0257 36.8279 35.9299C35.5471 35.3232 34.029 35.1383 32.4295 35.6975C30.4805 36.3956 28.9824 38.1265 28.6333 40.1628C28.4719 41.079 28.5323 42.0206 28.8092 42.9088C29.0862 43.7969 29.5717 44.6059 30.2253 45.268C30.8789 45.9301 31.6815 46.4262 32.566 46.7146C33.4505 47.0031 34.3912 47.0757 35.3095 46.9262C38.1603 46.4753 40.182 43.8572 40.182 40.9628V26.9269C40.182 26.7662 40.3123 26.636 40.4729 26.636H43.091C44.691 26.636 46 25.3269 46 23.727C46 22.127 44.691 20.818 43.091 20.818H40.182C38.5821 20.818 37.273 22.127 37.273 23.727V27.4458C37.273 27.6308 37.1026 27.7689 36.9216 27.7304L25.8675 25.3807C25.7331 25.3522 25.6371 25.2336 25.6371 25.0962V21.1089C25.6371 20.9482 25.7673 20.818 25.9279 20.818H28.546C30.146 20.818 31.455 19.5089 31.455 17.909C31.455 16.309 30.146 15 28.546 15H25.6371C24.0371 15 22.7281 16.309 22.7281 17.909Z" fill="white"/>
<defs>
<linearGradient id="paint0_linear_1555_9422" x1="60" y1="60" x2="-11.3946" y2="39.2998" gradientUnits="userSpaceOnUse">
<stop stop-color="#06C149"/>
<stop offset="1" stop-color="#33EB75"/>
</linearGradient>
</defs>
</svg>
