<svg width="100" height="101" viewBox="0 0 100 101" fill="none" xmlns="http://www.w3.org/2000/svg">
<path d="M30.3045 14.9449V47.2644C30.3045 47.8701 29.6463 48.2539 29.0989 47.9946C25.6301 46.3514 21.5186 45.8507 17.1868 47.365C11.9082 49.2559 7.85072 53.9436 6.90529 59.4586C6.46823 61.9401 6.63158 64.4902 7.3817 66.8956C8.13181 69.3011 9.44689 71.492 11.217 73.2853C12.9871 75.0785 15.1607 76.4219 17.5563 77.2032C19.9518 77.9845 22.4995 78.1809 24.9865 77.7761C32.7075 76.555 38.183 69.4643 38.183 61.6252V44.0757C38.183 43.5747 38.6446 43.2009 39.1347 43.3051L69.0731 49.6687C69.4369 49.7461 69.6971 50.0674 69.6971 50.4393V63.0215C69.6971 63.6272 69.0389 64.011 68.4915 63.7517C65.0227 62.1084 60.9112 61.6077 56.5794 63.1221C51.3008 65.0129 47.2433 69.7007 46.2979 75.2156C45.8608 77.6971 46.0242 80.2472 46.7743 82.6527C47.5244 85.0581 48.8395 87.2491 50.6096 89.0423C52.3797 90.8355 54.5534 92.179 56.9489 92.9602C59.3444 93.7415 61.8921 93.938 64.3791 93.5332C72.1001 92.312 77.5756 85.2214 77.5756 77.3822V39.3683C77.5756 38.9332 77.9284 38.5805 78.3635 38.5805H85.4542C89.7874 38.5805 93.3327 35.0352 93.3327 30.702C93.3327 26.3688 89.7874 22.8235 85.4542 22.8235H77.5756C73.2425 22.8235 69.6971 26.3688 69.6971 30.702V40.7739C69.6971 41.2749 69.2356 41.6487 68.7455 41.5445L38.8071 35.1809C38.4432 35.1036 38.183 34.7823 38.183 34.4103V23.6113C38.183 23.1762 38.5358 22.8235 38.9709 22.8235H46.0616C50.3947 22.8235 53.9401 19.2781 53.9401 14.9449C53.9401 10.6117 50.3947 7.06641 46.0616 7.06641H38.183C33.8498 7.06641 30.3045 10.6117 30.3045 14.9449Z" fill="url(#paint0_linear_1343_59973)"/>
<defs>
<linearGradient id="paint0_linear_1343_59973" x1="93.3327" y1="93.7382" x2="-9.79382" y2="63.8394" gradientUnits="userSpaceOnUse">
<stop stop-color="#06C149"/>
<stop offset="1" stop-color="#33EB75"/>
</linearGradient>
</defs>
</svg>
