<svg width="28" height="29" viewBox="0 0 28 29" fill="none" xmlns="http://www.w3.org/2000/svg">
<path fill-rule="evenodd" clip-rule="evenodd" d="M13.9679 24.2634C10.1891 24.2634 6.96094 23.6918 6.96094 21.4028C6.96094 19.1138 10.1681 17.1211 13.9679 17.1211C17.7468 17.1211 20.9749 19.0951 20.9749 21.3829C20.9749 23.6708 17.7678 24.2634 13.9679 24.2634Z" stroke="white" stroke-width="1.5" stroke-linecap="round" stroke-linejoin="round"/>
<path fill-rule="evenodd" clip-rule="evenodd" d="M13.9682 13.8572C16.4486 13.8572 18.4599 11.847 18.4599 9.36667C18.4599 6.88633 16.4486 4.875 13.9682 4.875C11.4879 4.875 9.47658 6.88633 9.47658 9.36667C9.46958 11.8377 11.4646 13.849 13.9367 13.8572H13.9682Z" stroke="white" stroke-width="1.5" stroke-linecap="round" stroke-linejoin="round"/>
<path d="M21.4222 12.6235C22.8653 12.2374 23.9294 10.9214 23.9294 9.35454C23.9294 7.72004 22.7708 6.35504 21.2285 6.04004" stroke="white" stroke-width="1.5" stroke-linecap="round" stroke-linejoin="round"/>
<path d="M22.0996 16.3018C24.1459 16.3018 25.8936 17.6889 25.8936 18.9279C25.8936 19.6571 25.2904 20.4516 24.3758 20.6663" stroke="white" stroke-width="1.5" stroke-linecap="round" stroke-linejoin="round"/>
<path d="M6.51419 12.6235C5.06986 12.2374 4.00586 10.9214 4.00586 9.35454C4.00586 7.72004 5.16553 6.35504 6.70669 6.04004" stroke="white" stroke-width="1.5" stroke-linecap="round" stroke-linejoin="round"/>
<path d="M5.83502 16.3018C3.78868 16.3018 2.04102 17.6889 2.04102 18.9279C2.04102 19.6571 2.64418 20.4516 3.56002 20.6663" stroke="white" stroke-width="1.5" stroke-linecap="round" stroke-linejoin="round"/>
</svg>
