<svg width="19" height="18" viewBox="0 0 19 18" fill="none" xmlns="http://www.w3.org/2000/svg">
<path d="M5.31315 15.2663L3.02148 14.7663C2.81315 14.7246 2.64648 14.6168 2.52148 14.443C2.39648 14.2696 2.34787 14.0788 2.37565 13.8705L2.60482 11.5163L1.04232 9.72462C0.903429 9.57184 0.833984 9.39128 0.833984 9.18295C0.833984 8.97462 0.903429 8.79406 1.04232 8.64129L2.60482 6.84962L2.37565 4.49545C2.34787 4.28712 2.39648 4.09629 2.52148 3.92295C2.64648 3.74906 2.81315 3.64129 3.02148 3.59962L5.31315 3.09962L6.52148 1.05795C6.63259 0.877396 6.78537 0.759341 6.97982 0.703785C7.17426 0.64823 7.36871 0.655174 7.56315 0.724618L9.72982 1.64129L11.8965 0.724618C12.0909 0.655174 12.2854 0.64823 12.4798 0.703785C12.6743 0.759341 12.827 0.877396 12.9382 1.05795L14.1465 3.09962L16.4381 3.59962C16.6465 3.64129 16.8131 3.74906 16.9381 3.92295C17.0631 4.09629 17.1118 4.28712 17.084 4.49545L16.8548 6.84962L18.4173 8.64129C18.5562 8.79406 18.6256 8.97462 18.6256 9.18295C18.6256 9.39128 18.5562 9.57184 18.4173 9.72462L16.8548 11.5163L17.084 13.8705C17.1118 14.0788 17.0631 14.2696 16.9381 14.443C16.8131 14.6168 16.6465 14.7246 16.4381 14.7663L14.1465 15.2663L12.9382 17.308C12.827 17.4885 12.6743 17.6066 12.4798 17.6621C12.2854 17.7177 12.0909 17.7107 11.8965 17.6413L9.72982 16.7246L7.56315 17.6413C7.36871 17.7107 7.17426 17.7177 6.97982 17.6621C6.78537 17.6066 6.63259 17.4885 6.52148 17.308L5.31315 15.2663ZM8.27148 11.558C8.42426 11.7107 8.61871 11.7871 8.85482 11.7871C9.09093 11.7871 9.28537 11.7107 9.43815 11.558L12.9798 8.01629C13.1465 7.84962 13.2298 7.65156 13.2298 7.42212C13.2298 7.19323 13.1465 6.99545 12.9798 6.82879C12.8131 6.66212 12.6154 6.57879 12.3865 6.57879C12.157 6.57879 11.959 6.66212 11.7923 6.82879L8.85482 9.76628L7.64648 8.57878C7.47982 8.42601 7.28204 8.35295 7.05315 8.35962C6.82371 8.36684 6.6326 8.44684 6.47982 8.59962C6.32704 8.7524 6.25065 8.94684 6.25065 9.18295C6.25065 9.41906 6.32704 9.61351 6.47982 9.76628L8.27148 11.558Z" fill="url(#paint0_linear_1578_17063)"/>
<defs>
<linearGradient id="paint0_linear_1578_17063" x1="18.6256" y1="17.6992" x2="-2.39626" y2="11.3323" gradientUnits="userSpaceOnUse">
<stop stop-color="#335EF7"/>
<stop offset="1" stop-color="#5F82FF"/>
</linearGradient>
</defs>
</svg>
