<svg width="25" height="24" viewBox="0 0 25 24" fill="none" xmlns="http://www.w3.org/2000/svg">
<path fill-rule="evenodd" clip-rule="evenodd" d="M16.8113 2.76862L16.8123 3.51824C19.5669 3.73413 21.3866 5.61119 21.3895 8.48975L21.4004 16.9155C21.4043 20.054 19.4326 21.985 16.2722 21.99L8.55227 22C5.41158 22.004 3.41521 20.027 3.41126 16.8795L3.4004 8.55272C3.39645 5.65517 5.15192 3.78311 7.90656 3.53024L7.90557 2.78061C7.90459 2.34083 8.23041 2.01 8.66483 2.01C9.09925 2.009 9.42507 2.33883 9.42606 2.77861L9.42705 3.47826L15.2918 3.47027L15.2908 2.77062C15.2898 2.33084 15.6156 2.001 16.05 2C16.4746 1.999 16.8103 2.32884 16.8113 2.76862ZM4.92187 8.86157L19.87 8.84158V8.49175C19.8276 6.34283 18.7494 5.21539 16.8142 5.04748L16.8152 5.81709C16.8152 6.24688 16.4805 6.5877 16.056 6.5877C15.6215 6.5887 15.2947 6.24887 15.2947 5.81909L15.2937 5.0095L9.42902 5.01749L9.43001 5.82609C9.43001 6.25687 9.10518 6.5967 8.67075 6.5967C8.23633 6.5977 7.90952 6.25887 7.90952 5.82809L7.90854 5.05847C5.98325 5.25137 4.91792 6.38281 4.92088 8.55072L4.92187 8.86157ZM15.6403 13.4043V13.4153C15.6502 13.8751 16.0254 14.2239 16.4805 14.2139C16.9248 14.2029 17.2793 13.8221 17.2694 13.3623C17.2487 12.9225 16.8922 12.5637 16.4489 12.5647C15.9948 12.5747 15.6393 12.9445 15.6403 13.4043ZM16.4558 17.892C16.0017 17.882 15.6354 17.5032 15.6344 17.0435C15.6245 16.5837 15.9888 16.2029 16.443 16.1919H16.4529C16.9169 16.1919 17.2931 16.5707 17.2931 17.0405C17.2941 17.5102 16.9189 17.891 16.4558 17.892ZM11.5725 13.4203C11.5923 13.8801 11.9684 14.2389 12.4226 14.2189C12.8669 14.1979 13.2213 13.8181 13.2016 13.3583C13.1907 12.9085 12.8254 12.5587 12.3811 12.5597C11.927 12.5797 11.5715 12.9605 11.5725 13.4203ZM12.4265 17.8471C11.9724 17.8671 11.5972 17.5082 11.5765 17.0485C11.5765 16.5887 11.9309 16.2089 12.3851 16.1879C12.8294 16.1869 13.1957 16.5367 13.2056 16.9855C13.2263 17.4463 12.8708 17.8261 12.4265 17.8471ZM7.50472 13.4553C7.52447 13.915 7.90064 14.2749 8.35481 14.2539C8.79911 14.2339 9.15356 13.8531 9.13282 13.3933C9.12295 12.9435 8.75764 12.5937 8.31235 12.5947C7.85818 12.6147 7.50373 12.9955 7.50472 13.4553ZM8.35876 17.8521C7.90459 17.8731 7.5294 17.5132 7.50867 17.0535C7.50768 16.5937 7.86312 16.2129 8.31729 16.1929C8.76159 16.1919 9.12789 16.5417 9.13776 16.9915C9.15849 17.4513 8.80404 17.8321 8.35876 17.8521Z" fill="#06C149"/>
</svg>
