<svg width="29" height="28" viewBox="0 0 29 28" fill="none" xmlns="http://www.w3.org/2000/svg">
<path d="M4.16667 23.3333H4.18034C4.82292 23.3333 5.34701 22.8092 5.34701 22.1667C5.34701 21.5241 4.82292 21 4.18034 21H4.16667C3.52409 21 3 21.5241 3 22.1667C3 22.8092 3.52409 23.3333 4.16667 23.3333Z" fill="#212121"/>
<path d="M10 22.1668C10 18.9448 7.38867 16.3335 4.16667 16.3335C3.52409 16.3335 3 16.8576 3 17.5002C3 18.1427 3.52409 18.6668 4.16667 18.6668C6.09896 18.6714 7.66211 20.2345 7.66667 22.1668C7.66667 22.8094 8.19076 23.3335 8.83333 23.3335C9.47591 23.3335 10 22.8094 10 22.1668Z" fill="#212121"/>
<path d="M14.6667 22.1667C14.6667 16.3653 9.9681 11.6667 4.16667 11.6667C3.52409 11.6667 3 12.1908 3 12.8334C3 13.476 3.52409 14.0001 4.16667 14.0001C6.42708 14.0001 8.45964 14.9115 9.94076 16.3927C11.4219 17.8738 12.3333 19.9063 12.3333 22.1667C12.3333 22.8093 12.8574 23.3334 13.5 23.3334C14.1426 23.3334 14.6667 22.8093 14.6667 22.1667Z" fill="#212121"/>
<path d="M18.1669 23.3334H21.6669C24.2464 23.3334 26.3336 21.2462 26.3336 18.6667V9.33342C26.3336 6.75399 24.2464 4.66675 21.6669 4.66675H7.66694H7.65782C5.69819 4.68498 3.9573 5.92912 3.30105 7.77938C3.08686 8.3855 3.40587 9.05542 4.01199 9.26961C4.61811 9.48381 5.28803 9.1648 5.50223 8.55868C5.83035 7.63355 6.70079 7.01375 7.68061 7.00464H7.6715H21.6715C22.9612 7.0092 24.0003 8.04826 24.0048 9.33797V18.6713C24.0003 19.961 22.9612 21.0001 21.6715 21.0046H18.1715C17.5289 21.0046 17.0048 21.5287 17.0048 22.1713C17.0003 22.8093 17.5244 23.3334 18.1669 23.3334Z" fill="#212121"/>
</svg>
