<svg width="380" height="201" viewBox="0 0 380 201" fill="none" xmlns="http://www.w3.org/2000/svg">
<g clip-path="url(#clip0_827_18189)">
<path d="M275.018 96.7772C275.018 99.5876 274.9 102.369 274.663 105.123C274.477 107.272 274.224 109.402 273.902 111.513C273.56 113.747 273.141 115.955 272.645 118.136V118.139C272.321 119.574 271.965 120.998 271.577 122.41C270.452 126.514 269.052 130.539 267.388 134.456C267.026 135.308 266.652 136.154 266.267 136.994C264.808 140.177 263.176 143.277 261.376 146.28C256.328 154.713 250.028 162.329 242.69 168.866C241.896 169.572 241.091 170.267 240.275 170.95C222.95 185.425 201.083 193.339 178.509 193.305C125.208 193.305 82 150.088 82 96.7772C82 43.466 125.208 0.249875 178.509 0.249875C200.306 0.2155 221.467 7.59498 238.518 21.1767C239.317 21.8102 240.106 22.4579 240.885 23.1198C244.687 26.3449 248.236 29.8577 251.499 33.6272H251.501C266.7 51.1506 275.052 73.579 275.018 96.7772Z" fill="#F2F2F2"/>
<path d="M110.489 113.451C101.296 107.978 94.3566 97.7503 95.2574 87.0876C103.663 95.1338 114.642 99.9469 126.254 100.676C130.733 100.94 135.743 100.768 139.04 103.812C141.092 105.706 142.047 108.558 142.203 111.346C142.36 114.134 141.801 116.907 141.246 119.644L141.437 120.314C130.738 120.354 119.683 118.924 110.489 113.451Z" fill="#E6E6E6"/>
<path d="M95.4819 87.0763C99.1655 95.1308 105.293 101.82 112.994 106.193C114.649 107.12 116.409 107.916 118.28 108.285C120.106 108.631 121.991 108.482 123.739 107.852C125.382 107.299 126.997 106.542 128.745 106.397C130.588 106.244 132.294 106.955 133.634 108.2C135.274 109.724 136.269 111.746 137.173 113.758C138.177 115.991 139.184 118.327 141.108 119.933C141.342 120.128 141.026 120.478 140.793 120.284C137.445 117.489 136.899 112.81 134.222 109.519C132.973 107.983 131.254 106.815 129.212 106.846C127.426 106.873 125.759 107.652 124.101 108.227C122.36 108.831 120.617 109.115 118.779 108.849C116.899 108.577 115.104 107.848 113.432 106.968C109.655 104.943 106.221 102.337 103.254 99.2448C99.8479 95.7348 97.0674 91.6679 95.0327 87.2201C94.9069 86.9447 95.3569 86.8027 95.4819 87.0763H95.4819Z" fill="white"/>
<path d="M110.431 104.931C109.522 106.123 108.218 106.954 106.754 107.274C105.289 107.595 103.758 107.384 102.434 106.679C102.167 106.536 102.377 106.114 102.645 106.257C103.876 106.915 105.302 107.112 106.666 106.811C108.029 106.51 109.24 105.731 110.08 104.615C110.263 104.373 110.612 104.69 110.431 104.931L110.431 104.931Z" fill="white"/>
<path d="M122.945 108.243C122.562 105.201 121.047 102.416 118.702 100.441C118.469 100.246 118.785 99.8953 119.017 100.09C121.454 102.149 123.024 105.052 123.416 108.218C123.453 108.52 122.981 108.543 122.945 108.243V108.243Z" fill="white"/>
<path d="M100.433 95.5134C100.881 95.1253 101.225 94.6319 101.436 94.0777C101.646 93.5235 101.715 92.9258 101.637 92.3382C101.596 92.037 102.067 92.0138 102.108 92.313C102.191 92.9626 102.114 93.6227 101.883 94.2355C101.652 94.8483 101.275 95.3953 100.784 95.8287C100.741 95.8734 100.683 95.9001 100.621 95.9034C100.559 95.9068 100.498 95.8864 100.451 95.8465C100.405 95.8045 100.377 95.746 100.373 95.6836C100.37 95.6213 100.391 95.5601 100.433 95.5135V95.5134Z" fill="white"/>
<path d="M125.017 66.4304C125.048 66.6178 125.079 66.8051 125.113 66.9942C125.541 69.5107 126.173 71.9882 127.002 74.4023C127.064 74.59 127.128 74.7793 127.195 74.9648C129.255 80.7596 132.372 86.1216 136.389 90.7782C137.989 92.6297 139.728 94.3567 141.59 95.9444C144.162 98.1368 147.125 100.309 148.774 103.14C148.949 103.434 149.106 103.738 149.244 104.05L142.241 120.029C142.206 120.057 142.176 120.087 142.142 120.116L141.891 120.766C141.789 120.691 141.685 120.611 141.584 120.536C141.525 120.493 141.467 120.446 141.408 120.402C141.369 120.372 141.33 120.342 141.293 120.317C141.28 120.307 141.267 120.297 141.258 120.289C141.221 120.264 141.189 120.237 141.156 120.214C140.574 119.767 139.994 119.316 139.416 118.86C139.412 118.858 139.412 118.858 139.41 118.853C135.016 115.366 130.874 111.481 127.453 107.091C127.351 106.959 127.244 106.826 127.144 106.686C125.613 104.699 124.248 102.59 123.06 100.38C122.414 99.1679 121.829 97.9237 121.309 96.6525C119.97 93.3651 119.157 89.8877 118.899 86.3476C118.386 79.2903 120.135 72.1474 124.667 66.8331C124.783 66.6972 124.897 66.5647 125.017 66.4304Z" fill="#E6E6E6"/>
<path d="M125.203 66.5552C123.296 75.2045 124.162 84.2351 127.678 92.3641C128.442 94.1011 129.368 95.7966 130.64 97.2177C131.889 98.5935 133.484 99.6094 135.259 100.16C136.904 100.707 138.649 101.075 140.133 102.012C141.696 103 142.63 104.595 142.95 106.396C143.343 108.601 142.919 110.814 142.43 112.965C141.888 115.352 141.286 117.824 141.856 120.265C141.925 120.561 141.462 120.651 141.393 120.355C140.401 116.108 142.782 112.042 142.626 107.803C142.553 105.825 141.884 103.857 140.235 102.652C138.793 101.598 136.993 101.216 135.323 100.677C133.569 100.111 132.006 99.2873 130.699 97.9684C129.361 96.6193 128.367 94.9564 127.562 93.2466C125.765 89.3558 124.592 85.2066 124.084 80.9512C123.477 76.0976 123.706 71.1761 124.758 66.3995C124.824 66.1039 125.268 66.2615 125.203 66.5552Z" fill="white"/>
<path d="M126.393 89.8133C124.949 90.2182 123.408 90.0967 122.046 89.4703C120.683 88.844 119.588 87.7537 118.955 86.3942C118.828 86.1187 119.25 85.9082 119.378 86.1841C119.964 87.4512 120.985 88.4667 122.255 89.0473C123.525 89.6279 124.96 89.7354 126.302 89.3504C126.594 89.2671 126.683 89.7304 126.393 89.8133H126.393Z" fill="white"/>
<path d="M134.389 99.9926C135.914 97.3336 136.382 94.1972 135.698 91.2089C135.63 90.9128 136.093 90.8229 136.161 91.1186C136.867 94.2297 136.374 97.4926 134.78 100.256C134.628 100.519 134.237 100.254 134.389 99.9926Z" fill="white"/>
<path d="M124.078 76.273C124.67 76.2328 125.242 76.0463 125.743 75.7303C126.245 75.4143 126.66 74.9787 126.951 74.4626C127.1 74.1975 127.49 74.4627 127.342 74.7261C127.018 75.2948 126.559 75.7753 126.005 76.1256C125.452 76.476 124.821 76.6855 124.168 76.7359C124.107 76.7458 124.045 76.7321 123.993 76.6975C123.942 76.6629 123.906 76.61 123.892 76.5496C123.88 76.4883 123.893 76.4248 123.928 76.373C123.963 76.3212 124.017 76.2853 124.078 76.273V76.273Z" fill="white"/>
<path d="M148.852 22.6222L160.665 160.926L137.04 162.702V24.3818C139.855 22.5187 143.896 22.2272 148.852 22.6222Z" fill="#CCCCCC"/>
<path d="M207.16 22.6222L195.348 160.926L218.972 162.702V24.3818C216.157 22.5187 212.116 22.2272 207.16 22.6222Z" fill="#CCCCCC"/>
<path d="M215.435 168.419H140.326C139.121 168.417 137.967 167.938 137.115 167.086C136.264 166.235 135.785 165.08 135.783 163.875V26.4117C135.785 25.2071 136.264 24.0522 137.115 23.2004C137.967 22.3487 139.121 21.8695 140.326 21.8682H215.435C216.639 21.8695 217.794 22.3487 218.645 23.2004C219.497 24.0522 219.976 25.2071 219.977 26.4117V163.875C219.976 165.08 219.497 166.235 218.645 167.086C217.794 167.938 216.639 168.417 215.435 168.419ZM140.326 23.3764C139.521 23.3773 138.75 23.6974 138.181 24.2664C137.612 24.8354 137.292 25.6069 137.291 26.4117V163.875C137.292 164.68 137.612 165.451 138.181 166.02C138.75 166.59 139.521 166.91 140.326 166.911H215.435C216.239 166.91 217.01 166.59 217.579 166.02C218.148 165.451 218.468 164.68 218.469 163.875V26.4117C218.468 25.6069 218.148 24.8354 217.579 24.2664C217.01 23.6974 216.239 23.3773 215.435 23.3764L140.326 23.3764Z" fill="#CCCCCC"/>
<path d="M219.223 44.7432H136.537V46.2514H219.223V44.7432Z" fill="#CCCCCC"/>
<path d="M219.223 69.8804H136.537V71.3886H219.223V69.8804Z" fill="#CCCCCC"/>
<path d="M163.371 22.6223H161.862V91.2472H163.371V22.6223Z" fill="#CCCCCC"/>
<path d="M193.9 22.6223H192.392V91.2472H193.9V22.6223Z" fill="#CCCCCC"/>
<path d="M228.649 172.566H129.627C127.827 172.566 126.101 171.851 124.828 170.578C123.556 169.306 122.841 167.579 122.841 165.779C122.841 163.979 123.556 162.253 124.828 160.98C126.101 159.707 127.827 158.992 129.627 158.992H228.649C230.448 158.992 232.174 159.707 233.447 160.98C234.72 162.253 235.435 163.979 235.435 165.779C235.435 167.579 234.72 169.306 233.447 170.578C232.174 171.851 230.448 172.566 228.649 172.566Z" fill="#CCCCCC"/>
<path d="M219.223 87.728H137.04V92.7555H219.223V87.728Z" fill="#CCCCCC"/>
<path d="M163.604 103.728L163.499 103.678C157.897 100.971 150.56 100.973 139.711 103.686L139.595 103.715L139.56 103.601C138.412 99.8369 137.112 95.5736 139.555 93.4761C139.589 87.3211 144.987 82.3232 151.617 82.3232C158.246 82.3232 163.643 87.3186 163.679 93.4719C167.313 96.2505 165.581 100.357 163.662 103.628L163.604 103.728Z" fill="#2F2E41"/>
<path d="M198.039 90.5485C197.938 91.0472 197.73 91.5179 197.428 91.9273C197.126 92.3367 196.738 92.6749 196.291 92.9181C195.844 93.1613 195.349 93.3035 194.842 93.3348C194.334 93.3661 193.826 93.2856 193.352 93.0991L173.554 112.999L171.787 106.82L191.451 88.3403C191.817 87.5659 192.454 86.9526 193.242 86.6167C194.03 86.2808 194.913 86.2456 195.725 86.5178C196.537 86.79 197.221 87.3506 197.648 88.0935C198.074 88.8364 198.213 89.7099 198.039 90.5485L198.039 90.5485Z" fill="#FFB6B6"/>
<path d="M149.106 109.706C149.106 109.706 147.31 113.778 151.742 116.288C156.174 118.799 171.665 115.33 174.179 114.846C176.692 114.362 186.08 100.31 186.08 100.31L184.753 93.4182L172.302 104.228L149.106 109.706Z" fill="#06C149"/>
<path d="M145.837 132.221L146.088 136.997C146.088 136.997 145.346 141.228 145.957 142.141C146.562 143.049 163.085 143.164 163.085 143.164C163.085 143.164 164.176 137.278 165.117 132.125L145.837 132.221Z" fill="#FFB6B6"/>
<path d="M193.34 195.371L196.795 194.673L195.806 180.719L190.708 181.749L193.34 195.371Z" fill="#FFB6B6"/>
<path d="M198.289 177.211L201.5 175.767L197.334 162.415L192.595 164.547L198.289 177.211Z" fill="#FFB6B6"/>
<path d="M201.085 169.688L195.039 173.112L180.127 149.146C169.659 156.2 159.423 159.578 149.104 161.38C145.615 162.002 142.058 161.687 141.388 158.135C141.357 157.969 141.332 157.802 141.313 157.634C140.901 153.755 145.726 148.782 146.339 144.036L159.544 143.243L161.172 145.331L176.443 135.941C179.514 134.052 183.553 135.074 185.465 138.222C185.566 138.388 185.659 138.559 185.746 138.733L201.085 169.688Z" fill="#2F2E41"/>
<path d="M197.385 185.81L190.466 186.454L177.922 160.793C165.482 162.933 153.747 163.618 143.596 161.03C140.159 160.166 138.058 156.616 138.904 153.102C138.943 152.938 138.989 152.775 139.041 152.615C140.256 148.907 143.436 146.284 145.941 142.207L164.242 142.485L162.198 149.539L179.976 147.238C183.551 146.775 186.816 149.364 187.269 153.019C187.292 153.212 187.308 153.406 187.315 153.601L197.385 185.81Z" fill="#2F2E41"/>
<path d="M152.982 100.08C157.086 100.08 160.413 96.752 160.413 92.6471C160.413 88.5423 157.086 85.2146 152.982 85.2146C148.878 85.2146 145.551 88.5423 145.551 92.6471C145.551 96.752 148.878 100.08 152.982 100.08Z" fill="#FFB6B6"/>
<path d="M148.626 102.763L155.439 103.565C155.727 103.599 155.996 103.721 156.211 103.915C156.425 104.11 156.573 104.366 156.635 104.649L157.719 109.608L164.474 117.564C164.474 117.564 166.899 122.113 165.99 127.269C165.08 132.424 164.68 136.255 164.68 136.255C164.68 136.255 146.561 143.05 145.954 142.14C145.348 141.23 145.151 137.098 145.151 137.098L142.726 110.108C142.726 110.108 145.454 105.559 146.97 105.559C147.949 105.526 147.823 103.324 148.626 102.763Z" fill="#06C149"/>
<path d="M164.865 137.914C165.821 137.914 166.596 136.984 166.596 135.837C166.596 134.691 165.821 133.761 164.865 133.761C163.909 133.761 163.135 134.691 163.135 135.837C163.135 136.984 163.909 137.914 164.865 137.914Z" fill="#06C149"/>
<path d="M191.627 191.778L196.893 189.139L197.886 191.454L204.545 192.801C204.874 192.867 205.173 193.037 205.398 193.286C205.624 193.534 205.764 193.848 205.799 194.182C205.833 194.516 205.76 194.852 205.59 195.141C205.42 195.431 205.162 195.658 204.853 195.79L198.419 198.549L196.328 196.733L196.877 199.21L194.451 200.25L191.627 191.778Z" fill="#2F2E41"/>
<path d="M196.781 176.1L202 173.368L203.033 175.667L209.715 176.896C210.045 176.956 210.347 177.121 210.577 177.365C210.807 177.61 210.953 177.921 210.993 178.255C211.033 178.588 210.966 178.925 210.801 179.217C210.636 179.51 210.382 179.741 210.076 179.879L203.691 182.75L201.569 180.972L202.161 183.439L199.754 184.521L196.781 176.1Z" fill="#2F2E41"/>
<path d="M148.736 90.3159C146.773 90.3191 144.857 89.7144 143.251 88.585L143.197 88.5474V88.482C143.199 86.5826 143.955 84.7617 145.298 83.4186C146.64 82.0755 148.461 81.32 150.36 81.3179H153.376C155.275 81.32 157.096 82.0755 158.438 83.4186C159.781 84.7617 160.537 86.5826 160.539 88.482C160.537 88.9167 160.365 89.3335 160.06 89.6436C159.756 89.9536 159.342 90.1324 158.908 90.142L148.906 90.3144C148.849 90.3154 148.793 90.3159 148.736 90.3159Z" fill="#2F2E41"/>
<path d="M161.042 87.1062C162.004 86.5508 162.165 85.0284 161.401 83.7058C160.638 82.3832 159.239 81.7612 158.278 82.3166C157.316 82.872 157.155 84.3944 157.918 85.717C158.682 87.0396 160.081 87.6616 161.042 87.1062Z" fill="#2F2E41"/>
<path d="M146.002 85.6308C147.082 84.5508 147.32 83.0387 146.535 82.2532C145.75 81.4678 144.238 81.7066 143.158 82.7865C142.078 83.8665 141.84 85.3786 142.625 86.1641C143.41 86.9495 144.922 86.7107 146.002 85.6308Z" fill="#2F2E41"/>
<path d="M211.769 153.588H204.352C204.184 153.587 204.019 153.623 203.867 153.694C203.715 153.764 203.581 153.866 203.472 153.994C203.199 153.944 202.917 153.959 202.651 154.039C202.384 154.119 202.14 154.26 201.939 154.453C201.738 154.645 201.586 154.882 201.494 155.145C201.402 155.407 201.374 155.688 201.412 155.964C201.45 156.239 201.552 156.502 201.711 156.73C201.87 156.958 202.081 157.146 202.326 157.277C202.572 157.408 202.845 157.479 203.123 157.484C203.401 157.489 203.676 157.428 203.926 157.306L204.541 159.305C204.614 159.542 204.761 159.749 204.961 159.897C205.16 160.044 205.401 160.123 205.649 160.123H210.472C210.72 160.123 210.961 160.044 211.16 159.897C211.36 159.749 211.506 159.542 211.579 159.305L212.877 155.088C212.93 154.914 212.942 154.731 212.912 154.552C212.881 154.373 212.809 154.204 212.701 154.058C212.594 153.912 212.453 153.794 212.291 153.712C212.129 153.63 211.95 153.588 211.769 153.588ZM203.16 156.981C202.826 156.981 202.507 156.849 202.271 156.613C202.035 156.377 201.903 156.058 201.903 155.724C201.903 155.391 202.035 155.071 202.271 154.836C202.507 154.6 202.826 154.467 203.16 154.467C203.182 154.467 203.204 154.473 203.227 154.474C203.177 154.677 203.183 154.889 203.244 155.088L203.775 156.813C203.588 156.922 203.376 156.98 203.16 156.981Z" fill="#3F3D56"/>
<path d="M178.648 148.131C178.141 148.178 177.631 148.113 177.152 147.941C176.673 147.769 176.238 147.495 175.877 147.136C175.516 146.778 175.238 146.345 175.062 145.867C174.886 145.39 174.817 144.88 174.86 144.373L150.12 131.112L155.531 127.647L178.873 141.186C179.719 141.314 180.49 141.749 181.037 142.407C181.585 143.065 181.872 143.902 181.845 144.758C181.817 145.614 181.476 146.431 180.887 147.052C180.298 147.674 179.501 148.058 178.648 148.131Z" fill="#FFB6B6"/>
<path d="M146.259 106.743C146.259 106.743 141.844 106.19 140.711 111.158C139.578 116.125 147.345 129.972 148.53 132.241C149.715 134.511 165.867 139.474 165.867 139.474L172.087 136.225L158.161 127.397L146.259 106.743Z" fill="#06C149"/>
<path d="M177.378 86.2197H178.886C179.619 86.2197 180.322 86.5111 180.841 87.0296C181.359 87.5482 181.65 88.2515 181.65 88.9848H174.613C174.613 88.2515 174.905 87.5482 175.423 87.0296C175.941 86.5111 176.645 86.2197 177.378 86.2197Z" fill="#CCCCCC"/>
<path d="M129.561 34.6293C137.812 34.6293 144.501 27.9395 144.501 19.6872C144.501 11.4349 137.812 4.74512 129.561 4.74512C121.311 4.74512 114.622 11.4349 114.622 19.6872C114.622 27.9395 121.311 34.6293 129.561 34.6293Z" fill="#FF6584"/>
<path d="M175.302 18.9083C171.348 14.76 166.757 10.9757 161.321 8.97593C159.807 8.41652 158.237 8.02191 156.638 7.79892C156.625 7.79716 156.613 7.79977 156.6 7.79873C156.574 7.79203 156.548 7.78685 156.521 7.78322C154.285 7.49832 152.016 7.63536 149.83 8.18724C148.762 8.45547 147.719 8.81874 146.715 9.2727C145.708 9.76435 144.731 10.3177 143.792 10.9297C141.803 12.1201 139.614 12.937 137.332 13.34C136.187 13.5463 135.026 13.6602 133.863 13.6806C132.853 13.7008 131.901 13.7359 130.944 14.1008C129.922 14.4852 129.004 15.1031 128.263 15.9053C127.523 16.7076 126.98 17.6719 126.678 18.7213C126.654 18.8147 126.661 18.9132 126.698 19.0024C126.734 19.0916 126.798 19.167 126.879 19.2176C127.138 19.403 127.391 19.6133 127.662 19.7785C127.904 19.8892 128.163 19.9597 128.427 19.9871C128.86 20.0783 129.292 20.1669 129.726 20.2528C131.322 20.5692 132.926 20.8493 134.536 21.0931C137.793 21.5863 141.068 21.9337 144.361 22.1354C150.957 22.535 157.576 22.336 164.136 21.5409C167.823 21.0943 171.485 20.4607 175.108 19.6428C175.181 19.6214 175.248 19.5814 175.301 19.5266C175.355 19.4719 175.393 19.4043 175.412 19.3303C175.432 19.2564 175.432 19.1788 175.413 19.1048C175.393 19.0309 175.355 18.9632 175.302 18.9083Z" fill="#E6E6E6"/>
<path d="M130.27 28.8988C128.756 28.3394 127.186 27.9448 125.587 27.7218C125.574 27.72 125.562 27.7226 125.549 27.7216C125.523 27.7149 125.497 27.7097 125.47 27.7061C123.235 27.4212 120.965 27.5582 118.78 28.1101C117.711 28.3783 116.668 28.7416 115.664 29.1956C114.657 29.6872 113.68 30.2406 112.741 30.8525C110.753 32.043 108.563 32.8599 106.281 33.2629C105.136 33.4691 103.976 33.583 102.812 33.6034C101.802 33.6237 100.85 33.6588 99.8932 34.0236C98.8713 34.408 97.9533 35.026 97.2125 35.8282C96.4718 36.6304 95.9287 37.5947 95.6268 38.6441C95.6035 38.7376 95.6105 38.836 95.6468 38.9252C95.6831 39.0144 95.7468 39.0898 95.8287 39.1404C96.0875 39.3258 96.3398 39.5361 96.6117 39.7013C96.8535 39.812 97.1119 39.8825 97.3765 39.9099C97.8088 40.0012 98.2416 40.0897 98.675 40.1756C100.272 40.492 101.875 40.7721 103.485 41.0159C106.742 41.5091 110.017 41.8566 113.31 42.0582C119.906 42.4578 126.525 42.2589 133.086 41.4637C136.773 41.0171 140.435 40.3836 144.057 39.5657C144.131 39.5442 144.197 39.5042 144.251 39.4494C144.304 39.3947 144.342 39.3271 144.362 39.2532C144.381 39.1793 144.381 39.1016 144.362 39.0276C144.343 38.9537 144.304 38.886 144.251 38.8311C140.298 34.6829 135.706 30.8986 130.27 28.8988Z" fill="#E6E6E6"/>
<path d="M238.004 140.29L226.515 125.195L217.45 130.321L236.659 153.136L238.004 140.29Z" fill="#3F3D56"/>
<path d="M264.467 115.751C264.722 122.077 265.702 128.353 267.387 134.456C267.025 135.308 266.652 136.154 266.266 136.995C264.808 140.177 263.175 143.277 261.375 146.28C256.328 154.713 250.027 162.329 242.689 168.866C241.895 169.573 241.09 170.267 240.274 170.95C235.622 164.535 233.111 157.456 232.119 150.172C231.993 149.247 231.89 148.311 231.812 147.381V147.376C231.621 145.116 231.56 142.847 231.629 140.579C231.631 140.398 231.636 140.215 231.644 140.031C231.732 137.608 231.95 135.18 232.28 132.774V132.772C232.317 132.495 232.355 132.219 232.398 131.942C232.518 131.112 232.654 130.283 232.802 129.458C233.665 124.703 234.87 120.016 236.406 115.434V115.432C236.449 115.299 236.492 115.168 236.54 115.037C236.705 114.539 236.874 114.047 237.047 113.554C237.058 113.515 237.071 113.478 237.087 113.441C237.311 112.797 237.54 112.159 237.774 111.525C237.836 111.35 237.902 111.174 237.97 110.998C238.233 110.291 238.502 109.59 238.776 108.899C238.862 108.677 238.95 108.456 239.038 108.238C239.106 108.069 239.171 107.901 239.241 107.735V107.732C239.641 106.744 240.046 105.776 240.455 104.826C241.604 102.157 242.785 99.6456 243.936 97.3304L243.939 97.3279C248.716 87.743 253.059 81.519 253.059 81.519L269.368 86.7979C267.422 90.2492 265.917 95.3395 265.093 101.345C264.457 106.118 264.248 110.938 264.467 115.749L264.467 115.751Z" fill="#3F3D56"/>
<path d="M237.362 114.215C237.266 113.991 237.158 113.773 237.047 113.554C236.474 112.444 235.736 111.427 234.858 110.538C234.728 110.404 234.592 110.271 234.451 110.145C232.937 108.751 231.096 107.76 229.099 107.266C227.101 106.771 225.01 106.788 223.021 107.315L223.011 107.32L222.935 107.34L222.953 107.426C223.028 107.824 223.138 108.215 223.28 108.594C223.317 108.698 223.36 108.796 223.403 108.894C223.421 108.939 223.443 108.979 223.463 109.024C223.463 109.024 223.461 109.027 223.466 109.027C223.466 109.029 223.468 109.032 223.468 109.034C223.516 109.127 223.561 109.223 223.612 109.313C223.508 109.215 223.41 109.115 223.315 109.012C223.222 108.916 223.137 108.816 223.051 108.715C222.758 108.373 222.493 108.009 222.259 107.624L222.219 107.556L222.149 107.584C221.2 107.913 220.296 108.356 219.455 108.904L219.364 108.964C218.722 109.386 217.998 109.668 217.24 109.791C216.482 109.915 215.706 109.878 214.963 109.683C213.792 109.381 212.571 109.326 211.377 109.521C210.184 109.716 209.043 110.157 208.029 110.817C207.358 111.255 206.75 111.784 206.225 112.39C206.18 112.443 206.134 112.498 206.089 112.551C205.994 112.667 205.903 112.785 205.815 112.906C204.87 114.169 204.291 115.667 204.139 117.237L204.134 117.295L204.182 117.327C205.032 117.91 205.994 118.311 207.006 118.504C206.37 118.592 205.726 118.609 205.086 118.551H205.084C204.794 118.527 204.505 118.487 204.219 118.431L204.166 118.421H204.164L204.099 118.408L204.109 118.529C204.184 120.065 204.667 121.553 205.509 122.84L205.534 122.875C205.543 122.888 205.551 122.901 205.559 122.915C205.915 123.461 206.212 124.043 206.444 124.652C207.031 126.166 207.16 127.819 206.815 129.406C206.425 131.103 206.555 132.878 207.188 134.5C207.821 136.123 208.928 137.516 210.364 138.5C211.626 139.369 213.097 139.885 214.624 139.996C214.833 140.014 215.044 140.024 215.255 140.024C216.463 140.027 217.659 139.778 218.766 139.292L218.806 139.277L218.816 139.232C219.029 138.545 219.328 137.888 219.706 137.276C219.582 137.758 219.52 138.254 219.52 138.752V138.918L219.663 138.835C219.786 138.762 219.912 138.684 220.025 138.611C220.704 138.168 221.319 137.633 221.852 137.022C222.061 136.781 222.272 136.547 222.493 136.313L222.496 136.311C222.925 135.853 223.38 135.406 223.853 134.979C224.858 134.076 225.934 133.254 227.07 132.523C228.205 131.794 229.392 131.148 230.621 130.592H230.623C230.762 130.527 230.902 130.464 231.041 130.404C231.653 130.137 232.242 129.821 232.802 129.459C232.823 129.446 232.84 129.436 232.858 129.423C235.287 127.832 237.073 125.43 237.898 122.645C238.723 119.86 238.533 116.873 237.362 114.215L237.362 114.215Z" fill="#06C149"/>
<path opacity="0.15" d="M207.23 132.975C207.161 133.28 207.109 133.589 207.074 133.901C206.606 132.422 206.538 130.845 206.878 129.332C206.93 129.1 206.969 128.866 207 128.63C207.464 130.032 207.544 131.532 207.23 132.975Z" fill="black"/>
<path opacity="0.15" d="M207.421 122.071C206.676 122.174 205.921 122.178 205.175 122.081C204.98 121.713 204.811 121.331 204.671 120.939C205.501 121.499 206.437 121.884 207.421 122.071Z" fill="black"/>
<path opacity="0.15" d="M205.115 118.471C204.84 119.173 204.658 119.909 204.572 120.659C204.343 119.945 204.207 119.204 204.169 118.455L204.163 118.334L204.282 118.357C204.557 118.409 204.836 118.447 205.115 118.471Z" fill="black"/>
<path opacity="0.15" d="M208.094 110.742C209.107 110.082 210.247 109.64 211.44 109.444C212.633 109.249 213.854 109.304 215.024 109.607C215.767 109.803 216.544 109.841 217.302 109.717C218.061 109.594 218.785 109.311 219.427 108.889L219.518 108.829C220.358 108.28 221.263 107.836 222.211 107.506L222.283 107.481L222.323 107.547C222.698 108.167 223.152 108.735 223.674 109.237C223.357 108.646 223.135 108.009 223.016 107.349L222.999 107.262L223.085 107.24C224.951 106.746 226.907 106.7 228.794 107.106C230.681 107.512 232.445 108.359 233.943 109.577C235.441 110.795 236.629 112.35 237.411 114.115C238.194 115.88 238.548 117.805 238.445 119.733C238.049 118.161 237.345 116.684 236.374 115.386C235.403 114.088 234.185 112.996 232.789 112.173C231.393 111.35 229.847 110.812 228.242 110.59C226.637 110.369 225.004 110.468 223.437 110.883L223.351 110.905L223.368 110.992C223.487 111.652 223.709 112.29 224.026 112.88C223.504 112.378 223.05 111.81 222.675 111.19L222.635 111.124L222.563 111.149C221.615 111.479 220.711 111.923 219.87 112.472L219.78 112.532C219.137 112.954 218.413 113.237 217.655 113.36C216.896 113.484 216.12 113.446 215.377 113.25C213.431 112.745 211.37 112.931 209.546 113.775C207.722 114.62 206.248 116.071 205.374 117.882C204.985 117.695 204.608 117.484 204.245 117.251L204.195 117.22L204.201 117.162C204.326 115.868 204.741 114.619 205.415 113.507C206.089 112.396 207.005 111.451 208.094 110.742Z" fill="black"/>
<path d="M301.528 46.5127L301.289 46.3543L301.115 46.5806C299.773 48.2707 298.706 50.1615 297.951 52.1837C298.055 49.8541 298.463 47.548 299.163 45.3237L299.238 45.0899L299.022 44.9667C296.21 43.3741 293.214 42.1315 290.1 41.2665L289.761 41.176C287.374 40.5211 285.153 39.3704 283.241 37.799C281.329 36.2276 279.77 34.2708 278.665 32.0562C276.097 26.9736 272.04 22.7951 267.037 20.0782C262.033 17.3614 256.32 16.2354 250.659 16.8506H250.657C250.597 16.8557 250.534 16.8632 250.473 16.8707C250.37 16.8808 250.27 16.8934 250.169 16.9059C249.963 16.9336 249.762 16.9612 249.561 16.9914C249.39 17.0165 249.217 17.0442 249.046 17.0744C248.955 17.0869 248.867 17.102 248.779 17.1196C248.691 17.1347 248.601 17.1498 248.513 17.1674H248.511C246.823 17.4866 245.169 17.9621 243.569 18.5876H243.567V18.5901L243.162 18.7485C242.745 18.9194 242.331 19.1004 241.921 19.2915C241.828 19.3342 241.737 19.3794 241.644 19.4222C241.619 19.4347 241.592 19.4473 241.566 19.4624C241.303 19.5881 241.041 19.7188 240.782 19.857C240.745 19.8746 240.707 19.8948 240.669 19.9149L240.428 20.0431C239.898 20.3296 239.377 20.6338 238.865 20.9555C238.822 20.9807 238.782 21.0058 238.739 21.0335C238.694 21.0636 238.646 21.0938 238.601 21.124C238.573 21.139 238.545 21.1592 238.518 21.1768C238.44 21.2245 238.365 21.2748 238.289 21.3276C238.138 21.4256 237.988 21.5262 237.839 21.6292C237.686 21.7323 237.535 21.8404 237.384 21.9485L237.234 22.0566L237.261 22.2426C237.286 22.3959 237.309 22.5493 237.337 22.7001C237.362 22.8509 237.387 22.9992 237.415 23.1475C237.457 23.3964 237.505 23.6427 237.553 23.8815C237.585 24.0399 237.616 24.1957 237.651 24.3491C237.683 24.5075 237.719 24.6658 237.756 24.8242C237.829 25.151 237.907 25.4677 237.99 25.7794C238.03 25.9353 238.073 26.0911 238.118 26.2444C238.143 26.3374 238.169 26.4305 238.196 26.521C238.216 26.5838 238.236 26.6466 238.256 26.7095C238.262 26.7296 238.267 26.7522 238.274 26.7748C238.28 26.7961 238.286 26.8171 238.294 26.8377C238.322 26.9307 238.349 27.0212 238.377 27.1092C238.392 27.1569 238.407 27.2047 238.425 27.2499C238.46 27.358 238.498 27.4686 238.535 27.5742C238.576 27.6949 238.618 27.8155 238.661 27.9337C238.671 27.9638 238.681 27.9915 238.691 28.0217C238.699 28.0443 238.706 28.0669 238.716 28.0895C238.726 28.1147 238.737 28.1423 238.747 28.1674C238.789 28.2806 238.832 28.3962 238.877 28.5093C238.892 28.5495 238.907 28.5923 238.925 28.6325C239.332 29.6565 239.833 30.641 240.42 31.5736C239.769 31.0155 239.143 30.4239 238.54 29.7989C237.61 28.8324 236.754 27.798 235.977 26.7045C235.914 26.619 235.851 26.531 235.794 26.443C235.675 26.2746 235.56 26.1062 235.447 25.9353C235.326 25.7593 235.21 25.5758 235.097 25.3948C235.022 25.2741 234.947 25.151 234.874 25.0303C234.801 24.9147 234.733 24.8016 234.668 24.6859L234.472 24.3491H234.469V24.3516L234.193 24.6231C234.082 24.7312 233.971 24.8393 233.863 24.9473C230.485 28.3467 228.039 32.5581 226.758 37.1767L226.721 37.3149L226.683 37.4582C226.61 37.7146 226.537 37.9635 226.459 38.2173V38.2199C226.384 38.4712 226.303 38.7226 226.218 38.9689C226.14 39.2027 226.06 39.434 225.974 39.6652C225.947 39.7432 225.916 39.8211 225.884 39.899C225.831 40.0499 225.773 40.1982 225.715 40.349C225.688 40.4169 225.66 40.4872 225.632 40.5551C225.565 40.721 225.497 40.8869 225.429 41.0503C225.419 41.0755 225.406 41.1031 225.394 41.1282C225.374 41.1785 225.351 41.2288 225.331 41.2766C225.278 41.3972 225.223 41.5204 225.17 41.641C225.132 41.719 225.097 41.7994 225.062 41.8773C225.047 41.9125 225.029 41.9477 225.014 41.9829C224.921 42.184 224.826 42.3826 224.725 42.5787C224.612 42.8099 224.496 43.0412 224.373 43.2674C224.265 43.4786 224.152 43.6847 224.034 43.8908C223.83 44.2553 223.617 44.6173 223.396 44.9692C223.31 45.105 223.225 45.2407 223.137 45.3765C223.117 45.4091 223.097 45.4418 223.076 45.472C223.004 45.5901 222.928 45.7033 222.85 45.8189C222.797 45.8968 222.745 45.9747 222.692 46.0501C222.604 46.1859 222.511 46.3166 222.415 46.4448C222.39 46.485 222.363 46.5227 222.335 46.5604C222.194 46.7565 222.054 46.9475 221.91 47.1386C221.905 47.1411 221.905 47.1436 221.903 47.1461C221.898 47.1461 221.898 47.1486 221.895 47.1512C221.832 47.2341 221.77 47.3171 221.704 47.3975C221.619 47.5156 221.526 47.6313 221.433 47.7444C221.282 47.9354 221.124 48.129 220.963 48.3175C220.958 48.3226 220.955 48.3276 220.95 48.3301C220.118 49.3087 219.215 50.2261 218.251 51.0751C218.233 51.0902 218.221 51.1053 218.203 51.1178C218.068 51.236 217.932 51.3541 217.791 51.4698C217.733 51.5175 217.675 51.5653 217.618 51.613C217.522 51.6935 217.424 51.7739 217.329 51.8468C217.317 51.8584 217.305 51.8685 217.291 51.877C217.206 51.9474 217.123 52.0127 217.037 52.0781C216.934 52.161 216.831 52.239 216.725 52.3169C216.228 52.6939 215.717 53.0501 215.192 53.3852C215.114 53.438 215.032 53.4908 214.951 53.5411C214.903 53.5712 214.856 53.6014 214.81 53.6265C214.619 53.7447 214.428 53.8603 214.237 53.9709C214.046 54.084 213.85 54.1921 213.657 54.2977C213.242 54.5239 212.832 54.7602 212.433 55.0066C212.232 55.1323 212.031 55.258 211.832 55.3862C211.043 55.899 210.283 56.4478 209.553 57.0326C208.822 57.6179 208.122 58.2395 207.454 58.8953C207.371 58.9758 207.288 59.0587 207.205 59.1442C207.039 59.3076 206.879 59.4735 206.725 59.6394C206.479 59.8933 206.243 60.1547 206.009 60.4186C204.776 61.8174 203.685 63.3347 202.752 64.9484C202.283 65.7542 201.857 66.584 201.475 67.4345C201.186 68.0704 200.922 68.7215 200.683 69.3801C200.525 69.82 200.377 70.2641 200.239 70.7124C200.171 70.9361 200.105 71.1623 200.043 71.3886C199.829 72.1553 199.65 72.9295 199.505 73.7062C199.387 74.3296 199.291 74.9539 199.218 75.579C199.18 75.8932 199.15 76.2074 199.123 76.5191C199.058 77.2852 199.025 78.0521 199.023 78.8197C199.019 81.1226 199.299 83.4172 199.857 85.6515C199.98 86.1442 200.116 86.6344 200.266 87.122C200.342 87.3659 200.422 87.6072 200.502 87.8485C200.706 88.4518 200.931 89.0492 201.178 89.6408C201.327 89.9952 201.483 90.3471 201.646 90.6965C202.684 92.9178 204.009 94.9934 205.587 96.8703C205.846 97.1795 206.113 97.4836 206.388 97.7828C206.391 97.7828 206.388 97.7853 206.388 97.7853C207.072 98.5313 207.796 99.2396 208.557 99.9069H208.56C208.864 100.176 209.173 100.436 209.487 100.689C209.49 100.686 209.49 100.689 209.49 100.689C209.806 100.945 210.126 101.191 210.452 101.43C210.616 101.548 210.782 101.666 210.95 101.785C211.279 102.018 211.615 102.244 211.958 102.461H211.96C212.302 102.682 212.649 102.893 213.001 103.094C213.707 103.499 214.431 103.879 215.175 104.223L215.3 104.281L215.429 104.223C216.621 103.686 217.851 103.235 219.108 102.873C219.384 102.793 219.663 102.72 219.94 102.649C220.639 102.476 221.342 102.33 222.051 102.212C221.361 102.558 220.694 102.951 220.056 103.386C219.56 103.72 219.073 104.085 218.583 104.487C218.419 104.62 218.256 104.758 218.093 104.899L217.686 105.251L218.196 105.419C218.382 105.48 218.568 105.54 218.754 105.595C219.007 105.676 219.259 105.749 219.505 105.817C220.043 105.967 220.584 106.101 221.129 106.216C221.262 106.244 221.393 106.272 221.526 106.299C221.785 106.35 222.046 106.4 222.307 106.445C222.318 106.448 222.329 106.449 222.34 106.45C222.612 106.495 222.885 106.538 223.157 106.576C223.662 106.649 224.167 106.707 224.672 106.749C224.728 106.757 224.783 106.759 224.841 106.762C224.964 106.772 225.085 106.782 225.208 106.789C225.479 106.807 225.753 106.82 226.027 106.83C226.047 106.83 226.065 106.832 226.085 106.832C226.223 106.837 226.361 106.842 226.5 106.845C226.5 106.845 226.5 106.847 226.502 106.845C226.64 106.847 226.778 106.85 226.917 106.85H227.681C227.824 106.85 227.967 106.852 228.113 106.852C228.314 106.852 228.518 106.855 228.719 106.857C228.772 106.857 228.827 106.86 228.882 106.86C229.204 106.865 229.525 106.872 229.847 106.88C229.867 106.88 229.887 106.882 229.907 106.882C230.229 106.893 230.551 106.903 230.873 106.918C230.943 106.92 231.013 106.923 231.086 106.928C231.395 106.94 231.704 106.955 232.014 106.973C232.102 106.978 232.192 106.986 232.283 106.991C232.516 107.003 232.752 107.018 232.986 107.036C233.124 107.043 233.26 107.053 233.398 107.066C233.956 107.109 234.512 107.156 235.07 107.212C235.256 107.227 235.442 107.247 235.628 107.267C236.125 107.32 236.625 107.378 237.126 107.441C237.349 107.466 237.573 107.496 237.797 107.526C237.822 107.528 237.847 107.531 237.872 107.536C238.148 107.574 238.422 107.611 238.699 107.652C238.88 107.677 239.061 107.704 239.242 107.732C239.428 107.76 239.614 107.787 239.8 107.82C239.9 107.835 240.001 107.853 240.104 107.87C240.345 107.908 240.589 107.948 240.833 107.994C240.855 107.996 240.876 107.999 240.898 108.004C241.416 108.094 241.936 108.19 242.454 108.293C242.758 108.35 243.059 108.411 243.361 108.474C243.597 108.521 243.833 108.572 244.07 108.622C244.11 108.63 244.15 108.64 244.19 108.65C244.199 108.652 244.209 108.654 244.218 108.655C244.575 108.733 244.934 108.813 245.291 108.898C246.53 109.185 247.768 109.503 249.003 109.854C249.287 109.932 249.571 110.015 249.855 110.098C249.976 110.133 250.094 110.168 250.212 110.203C250.458 110.276 250.702 110.349 250.948 110.427C251.165 110.492 251.383 110.56 251.599 110.63C251.735 110.673 251.871 110.716 252.007 110.761C252.218 110.827 252.429 110.894 252.637 110.967C252.816 111.023 252.992 111.08 253.168 111.143C253.419 111.226 253.673 111.312 253.924 111.402C253.997 111.427 254.072 111.452 254.145 111.48C254.452 111.586 254.759 111.694 255.065 111.807C255.364 111.915 255.663 112.026 255.96 112.136C256.166 112.214 256.372 112.29 256.576 112.37C256.804 112.458 257.033 112.546 257.259 112.636C257.586 112.765 257.915 112.895 258.242 113.029C258.543 113.149 258.843 113.272 259.144 113.401C259.199 113.423 259.257 113.446 259.313 113.471C259.574 113.579 259.835 113.692 260.094 113.805C260.263 113.876 260.428 113.949 260.594 114.021C261.318 114.338 262.041 114.666 262.763 115.004H262.766C263.218 115.218 263.678 115.422 264.141 115.615C264.249 115.66 264.357 115.706 264.467 115.748C264.651 115.826 264.837 115.899 265.023 115.975C265.143 116.022 265.264 116.07 265.387 116.115C265.566 116.186 265.746 116.254 265.927 116.319C266.118 116.389 266.307 116.46 266.5 116.525C266.568 116.55 266.636 116.573 266.707 116.598C266.93 116.673 267.154 116.749 267.38 116.822C267.403 116.829 267.425 116.837 267.45 116.844C267.687 116.92 267.923 116.995 268.162 117.066C268.181 117.073 268.2 117.079 268.22 117.083C268.476 117.161 268.737 117.237 268.996 117.309C269.378 117.415 269.763 117.516 270.147 117.609C270.218 117.626 270.288 117.644 270.358 117.659C270.564 117.709 270.768 117.757 270.974 117.802C271.193 117.852 271.414 117.898 271.633 117.943C271.854 117.988 272.075 118.033 272.294 118.074C272.412 118.096 272.53 118.119 272.645 118.139L272.954 118.192C273.168 118.229 273.382 118.262 273.598 118.297C273.604 118.297 273.61 118.298 273.615 118.3C273.859 118.338 274.101 118.373 274.344 118.403C274.578 118.436 274.812 118.463 275.046 118.491C275.093 118.496 275.144 118.501 275.194 118.506C275.387 118.529 275.581 118.551 275.774 118.569C275.83 118.574 275.885 118.579 275.94 118.584C276.131 118.602 276.322 118.619 276.513 118.632C276.552 118.637 276.59 118.639 276.629 118.639C276.8 118.654 276.971 118.667 277.142 118.674C277.262 118.684 277.38 118.689 277.501 118.697C277.564 118.7 277.624 118.702 277.687 118.705C277.853 118.715 278.019 118.72 278.187 118.725C278.391 118.732 278.594 118.737 278.795 118.742C279.039 118.747 279.285 118.75 279.529 118.75H279.534C279.773 118.75 280.014 118.747 280.253 118.742H280.343L280.607 118.735C280.743 118.732 280.879 118.727 281.012 118.722C281.268 118.712 281.522 118.7 281.776 118.684C281.877 118.679 281.98 118.672 282.08 118.667C282.125 118.664 282.173 118.659 282.218 118.657C282.377 118.647 282.533 118.637 282.691 118.624C282.854 118.612 283.02 118.596 283.183 118.579C283.395 118.559 283.606 118.536 283.817 118.514C283.983 118.496 284.149 118.476 284.312 118.456C284.334 118.454 284.356 118.45 284.377 118.446C284.536 118.428 284.694 118.408 284.85 118.385C285.036 118.36 285.219 118.333 285.403 118.305C285.423 118.302 285.44 118.3 285.46 118.297C285.777 118.247 286.096 118.197 286.416 118.139C286.75 118.079 287.084 118.013 287.416 117.945C287.539 117.92 287.66 117.893 287.783 117.868C287.851 117.852 287.921 117.84 287.986 117.825C288.089 117.802 288.19 117.78 288.29 117.754C288.308 117.752 288.328 117.747 288.346 117.744C288.486 117.714 288.625 117.679 288.765 117.644C289.047 117.576 289.323 117.506 289.6 117.43C289.723 117.4 289.846 117.367 289.964 117.335C289.999 117.325 290.035 117.314 290.067 117.304C290.577 117.161 291.083 117.009 291.585 116.849C291.806 116.779 292.025 116.706 292.244 116.628C292.714 116.467 293.18 116.298 293.641 116.12C293.764 116.075 293.887 116.025 294.011 115.977C294.192 115.904 294.372 115.831 294.551 115.758C294.712 115.691 294.873 115.623 295.036 115.552C295.116 115.52 295.197 115.484 295.277 115.449C295.519 115.344 295.76 115.236 295.999 115.128C296.159 115.052 296.318 114.979 296.476 114.904C296.727 114.783 296.976 114.66 297.225 114.537C297.288 114.504 297.348 114.471 297.409 114.441C297.567 114.361 297.725 114.278 297.886 114.197C298.14 114.062 298.394 113.926 298.645 113.785C298.73 113.74 298.813 113.692 298.899 113.644C299.175 113.489 299.449 113.33 299.721 113.169C300.321 112.81 300.914 112.435 301.498 112.043C301.643 111.948 301.789 111.847 301.932 111.749C302.204 111.563 302.47 111.372 302.737 111.181C302.764 111.161 302.789 111.141 302.817 111.123C302.95 111.025 303.083 110.927 303.217 110.827C303.493 110.618 303.767 110.407 304.041 110.191C304.046 110.188 304.054 110.181 304.061 110.175C304.184 110.077 304.307 109.979 304.428 109.881C304.802 109.577 305.172 109.268 305.534 108.949C305.712 108.795 305.888 108.637 306.062 108.479C306.192 108.361 306.323 108.242 306.451 108.122C306.71 107.878 306.964 107.637 307.215 107.39C307.341 107.27 307.464 107.144 307.59 107.018C307.713 106.893 307.838 106.767 307.962 106.639C308.004 106.596 308.047 106.551 308.09 106.505C308.215 106.372 308.341 106.236 308.467 106.103C308.575 105.988 308.68 105.867 308.788 105.746C308.969 105.545 309.153 105.344 309.331 105.14C309.341 105.129 309.351 105.118 309.362 105.108C309.372 105.095 309.382 105.085 309.389 105.075H309.387C313.04 100.85 315.754 95.8969 317.35 90.5439C318.946 85.1909 319.387 79.5599 318.644 74.0236C317.901 68.4873 315.991 63.172 313.04 58.4293C310.09 53.6867 306.165 49.6249 301.528 46.5127L301.528 46.5127Z" fill="#06C149"/>
<g opacity="0.15">
<path opacity="0.15" d="M250.658 16.8486C251.159 18.6486 251.913 20.3683 252.897 21.9565C251.25 20.5412 249.778 18.9336 248.513 17.168C249.223 17.0336 249.938 16.9272 250.658 16.8486Z" fill="black"/>
<path opacity="0.15" d="M226.134 44.685C224.273 45.7004 222.534 46.9232 220.949 48.33C223.626 45.1646 225.582 41.455 226.682 37.4582C226.695 37.4102 226.708 37.3619 226.721 37.3138L226.759 37.1778C228.081 32.4076 230.646 28.0742 234.191 24.6208L234.47 24.3491L234.667 24.6848C235.754 26.5334 237.054 28.2475 238.542 29.7919C236.263 36.2255 231.827 41.5801 226.134 44.685Z" fill="black"/>
<path opacity="0.15" d="M239.235 27.5626L239.198 27.6987C239.185 27.7468 239.171 27.7951 239.158 27.8431C239.084 28.1076 239.006 28.3702 238.926 28.6316C238.131 26.5719 237.573 24.4285 237.262 22.2426L237.232 22.0571L237.385 21.9481C239.297 20.5737 241.374 19.4443 243.568 18.5864C241.599 21.2953 240.131 24.3355 239.235 27.5626Z" fill="black"/>
<path opacity="0.15" d="M213.658 54.3C215.304 53.3988 216.845 52.317 218.251 51.0747C215.441 54.3472 213.427 58.2262 212.366 62.4076C211.305 66.5891 211.227 70.9594 212.137 75.1761C213.048 79.3929 214.922 83.3415 217.613 86.7126C220.305 90.0837 223.74 92.7856 227.65 94.6068L227.777 94.6655L227.904 94.6082C230.016 93.6539 232.242 92.9776 234.528 92.5962C233.101 93.3231 231.771 94.2262 230.569 95.2842L230.163 95.6359L230.673 95.8043C231.113 95.9499 231.554 96.0839 231.982 96.2028C234.497 96.9035 237.097 97.2515 239.708 97.2368C251.571 97.1608 263.526 99.9039 275.241 105.39C277.25 106.329 279.334 107.1 281.471 107.693C290.784 110.286 300.726 109.353 309.394 105.073C304.507 110.726 298.117 114.876 290.966 117.042C283.815 119.207 276.196 119.3 268.995 117.308C266.858 116.715 264.774 115.944 262.765 115.005C251.05 109.519 239.095 106.776 227.232 106.852C224.621 106.867 222.021 106.519 219.506 105.818C219.078 105.699 218.637 105.565 218.197 105.419L217.687 105.251L218.093 104.899C219.295 103.841 220.625 102.938 222.052 102.211C219.766 102.593 217.539 103.269 215.428 104.223L215.301 104.28L215.174 104.222C210.478 102.036 206.483 98.5881 203.632 94.263C200.782 89.938 199.19 84.9059 199.032 79.7282C198.875 74.5506 200.159 69.4311 202.742 64.941C205.325 60.4509 209.104 56.7668 213.658 54.3L213.658 54.3Z" fill="black"/>
</g>
</g>
<defs>
<clipPath id="clip0_827_18189">
<rect width="237" height="200" fill="white" transform="translate(82 0.25)"/>
</clipPath>
</defs>
</svg>
