<svg width="24" height="25" viewBox="0 0 24 25" fill="none" xmlns="http://www.w3.org/2000/svg">
<path d="M14.026 12.9982L18.6799 8.35514C18.8837 8.15134 18.9982 7.87493 18.9982 7.58672C18.9982 7.2985 18.8837 7.02209 18.6799 6.81829C18.4761 6.61449 18.1997 6.5 17.9114 6.5C17.6232 6.5 17.3468 6.61449 17.143 6.81829L12.5 11.4721L7.85699 6.81829C7.65319 6.61449 7.37678 6.5 7.08856 6.5C6.80035 6.5 6.52394 6.61449 6.32014 6.81829C6.11634 7.02209 6.00185 7.2985 6.00185 7.58672C6.00185 7.87493 6.11634 8.15134 6.32014 8.35514L10.974 12.9982L6.32014 17.6412C6.2187 17.7418 6.13818 17.8615 6.08324 17.9934C6.02829 18.1253 6 18.2667 6 18.4096C6 18.5525 6.02829 18.6939 6.08324 18.8258C6.13818 18.9577 6.2187 19.0774 6.32014 19.178C6.42075 19.2795 6.54045 19.36 6.67234 19.4149C6.80423 19.4699 6.94569 19.4982 7.08856 19.4982C7.23144 19.4982 7.3729 19.4699 7.50479 19.4149C7.63667 19.36 7.75637 19.2795 7.85699 19.178L12.5 14.5242L17.143 19.178C17.2436 19.2795 17.3633 19.36 17.4952 19.4149C17.6271 19.4699 17.7686 19.4982 17.9114 19.4982C18.0543 19.4982 18.1958 19.4699 18.3277 19.4149C18.4595 19.36 18.5792 19.2795 18.6799 19.178C18.7813 19.0774 18.8618 18.9577 18.9168 18.8258C18.9717 18.6939 19 18.5525 19 18.4096C19 18.2667 18.9717 18.1253 18.9168 17.9934C18.8618 17.8615 18.7813 17.7418 18.6799 17.6412L14.026 12.9982Z" fill="#757575"/>
</svg>
