<svg width="276" height="251" viewBox="0 0 276 251" fill="none" xmlns="http://www.w3.org/2000/svg">
<g clip-path="url(#clip0_1343_97543)">
<path d="M190.728 249.704H112.414C100.668 249.704 91.1113 240.157 91.1113 228.423V21.6135C91.1113 9.87966 100.668 0.333374 112.414 0.333374H190.728C202.474 0.333374 212.03 9.87966 212.03 21.6135C213.488 104.662 215.974 197.663 212.03 228.423C212.03 240.157 202.474 249.704 190.728 249.704L190.728 249.704Z" fill="#3F3D56"/>
<path d="M213.122 76.4048C212.625 76.4048 212.221 76.8085 212.221 77.305V106.113C212.221 106.61 212.625 107.013 213.122 107.013C213.619 107.013 214.023 106.61 214.023 106.113V77.305C214.023 76.8085 213.619 76.4048 213.122 76.4048Z" fill="#3F3D56"/>
<path d="M210.002 21.6137V228.42C210.002 238.633 202.044 246.988 191.982 247.636H191.978C191.829 247.645 191.681 247.654 191.527 247.658C191.261 247.672 190.996 247.676 190.725 247.676C190.725 247.676 189.734 247.604 187.923 247.469C186.093 247.334 183.43 247.132 180.109 246.866C179.113 246.79 178.063 246.704 176.955 246.614C174.747 246.434 172.323 246.236 169.723 246.011C168.687 245.925 167.614 245.831 166.519 245.736C160.923 245.255 154.655 244.692 148.045 244.053C146.927 243.949 145.801 243.841 144.665 243.729C144.368 243.697 93.1387 230.833 93.1387 228.42V21.6137C93.1387 10.9772 101.768 2.3573 112.415 2.3573H123.923C125.762 2.3573 127.24 3.7887 127.398 5.62072C127.411 5.74226 127.425 5.86378 127.447 5.98532C127.781 7.82635 129.47 9.1092 131.345 9.1092H171.796C173.67 9.1092 175.36 7.82635 175.693 5.98532C175.716 5.86378 175.729 5.74227 175.743 5.62072C175.901 3.7887 177.379 2.3573 179.217 2.3573H190.725C201.373 2.3573 210.002 10.9772 210.002 21.6137H210.002Z" fill="#1F222A"/>
<path d="M90.661 54.7988C90.1639 54.7988 89.7598 55.2026 89.7598 55.6991V62.9011C89.7598 63.3976 90.1639 63.8014 90.661 63.8014C91.158 63.8014 91.5622 63.3976 91.5622 62.9011V55.6991C91.5622 55.2026 91.158 54.7988 90.661 54.7988Z" fill="#3F3D56"/>
<path d="M90.661 76.4048C90.1639 76.4048 89.7598 76.8085 89.7598 77.305V91.259C89.7598 91.7555 90.1639 92.1592 90.661 92.1592C91.158 92.1592 91.5622 91.7555 91.5622 91.259V77.305C91.5622 76.8085 91.158 76.4048 90.661 76.4048V76.4048Z" fill="#3F3D56"/>
<path d="M90.661 96.2104C90.1639 96.2104 89.7598 96.6142 89.7598 97.1107V111.065C89.7598 111.561 90.1639 111.965 90.661 111.965C91.158 111.965 91.5622 111.561 91.5622 111.065V97.1107C91.5622 96.6142 91.158 96.2104 90.661 96.2104Z" fill="#3F3D56"/>
<path d="M123.629 5.50989H106.359C106.275 5.50989 106.207 5.57766 106.207 5.66127V7.60914C106.207 7.69274 106.275 7.76052 106.359 7.76052H123.629C123.712 7.76052 123.78 7.69274 123.78 7.60914V5.66127C123.78 5.57766 123.712 5.50989 123.629 5.50989Z" fill="#35383F"/>
<path d="M182.066 7.76056C183.061 7.76056 183.868 6.95444 183.868 5.96005C183.868 4.96566 183.061 4.15955 182.066 4.15955C181.071 4.15955 180.264 4.96566 180.264 5.96005C180.264 6.95444 181.071 7.76056 182.066 7.76056Z" fill="#35383F"/>
<path d="M187.021 7.76056C188.017 7.76056 188.824 6.95444 188.824 5.96005C188.824 4.96566 188.017 4.15955 187.021 4.15955C186.026 4.15955 185.219 4.96566 185.219 5.96005C185.219 6.95444 186.026 7.76056 187.021 7.76056Z" fill="#35383F"/>
<path d="M191.978 7.76056C192.974 7.76056 193.781 6.95444 193.781 5.96005C193.781 4.96566 192.974 4.15955 191.978 4.15955C190.983 4.15955 190.176 4.96566 190.176 5.96005C190.176 6.95444 190.983 7.76056 191.978 7.76056Z" fill="#35383F"/>
<path d="M6.99219 249.753C6.99219 250.075 7.25111 250.333 7.57354 250.333H275.418C275.741 250.333 276 250.075 276 249.753C276 249.431 275.741 249.172 275.418 249.172H7.57354C7.25111 249.172 6.99219 249.431 6.99219 249.753Z" fill="#35383F"/>
<path d="M92.3946 245.939L86.902 245.938L84.2891 224.774L92.3957 224.774L92.3946 245.939Z" fill="#FFB6B6"/>
<path d="M73.5757 245.814C73.4047 246.102 73.3145 247.031 73.3145 247.365C73.3145 248.394 74.1491 249.227 75.1787 249.227H92.1888C92.8912 249.227 93.4606 248.659 93.4606 247.957V247.25C93.4606 247.25 94.3021 245.123 92.5697 242.503C92.5697 242.503 90.4165 244.555 87.199 241.341L86.2502 239.624L79.3822 244.641L75.5754 245.109C74.7426 245.212 74.0042 245.093 73.5758 245.814H73.5757V245.814H73.5757Z" fill="#2F2E41"/>
<path d="M62.0187 216.542L56.5261 216.524L53.9805 195.352L62.0871 195.378L62.0187 216.542Z" fill="#FFB6B6"/>
<path d="M43.1998 216.358C43.0279 216.645 42.9347 217.574 42.9336 217.908C42.9303 218.937 43.7623 219.773 44.7919 219.777L61.802 219.831C62.5043 219.833 63.0756 219.266 63.0778 218.564L63.0801 217.857C63.0801 217.857 63.9283 215.733 62.2042 213.107C62.2042 213.107 60.0445 215.152 56.8372 211.928L55.8939 210.208L49.01 215.204L45.2017 215.66C44.3686 215.76 43.6306 215.639 43.1999 216.358H43.1998V216.358Z" fill="#2F2E41"/>
<path d="M84.3825 117.453L77.5433 117.941C77.5433 117.941 54.3902 131.091 52.4362 134.019C50.4821 136.947 47.7953 141.095 50.2379 145.487C52.6804 149.879 50.8214 203.058 50.8214 203.058L62.4933 200.42L69.9715 144.781L85.6038 142.585C85.6038 142.585 90.9774 154.166 89.0233 163.748C87.0693 173.329 86.0923 179.185 86.0923 179.185L83.6497 235.793L93.1756 235.549L101.725 183.089L116.38 141.609L97.328 119.161L84.3825 117.453Z" fill="#2F2E41"/>
<path d="M52.8471 112.746C50.0658 114.262 48.5943 116.925 49.5602 118.693C50.5261 120.461 53.5638 120.665 56.3451 119.148C57.5626 118.485 58.529 117.601 59.15 116.669L70.8543 110.097L67.6496 104.676L56.4516 111.73C55.3311 111.748 54.0646 112.082 52.8471 112.746H52.8471Z" fill="#FFB6B6"/>
<path d="M118.089 57.4292L103.922 58.8932L102.456 63.7732L88.778 71.0932L93.1746 101.837L89.755 107.205L91.2205 112.573C91.2205 112.573 87.3125 113.061 87.801 115.989L79.0078 117.453C79.0078 117.453 90.6705 119.832 93.1438 131.574C95.6171 143.317 116.135 144.781 116.135 144.781L132.255 94.5171L133.721 64.7492L122.485 61.8212L118.089 57.4292Z" fill="#35383F"/>
<path d="M92.3168 71.321C92.3168 71.321 87.7287 69.5759 86.1479 71.6765C84.5671 73.777 74.1243 99.2655 74.1243 99.2655L58.8027 107.259L63.1113 114.754L82.8409 108.192L95.858 84.4104L92.3168 71.321Z" fill="#35383F"/>
<path d="M236.999 155.028V206.756C236.999 211.33 233.274 215.052 228.694 215.052H100.705C96.1258 215.052 92.4004 211.33 92.4004 206.756V155.028C92.4004 150.454 96.1258 146.732 100.705 146.732H228.694C233.274 146.732 236.999 150.454 236.999 155.028Z" fill="#1F222A"/>
<path d="M236.999 155.028V206.756C236.999 211.33 233.274 215.052 228.694 215.052H100.705C96.1258 215.052 92.4004 211.33 92.4004 206.756V155.028C92.4004 150.454 96.1258 146.732 100.705 146.732H228.694C233.274 146.732 236.999 150.454 236.999 155.028ZM228.694 214.076C232.741 214.076 236.022 210.799 236.022 206.756V180.677C236.022 162.469 221.246 147.708 203.019 147.708H100.705C96.6581 147.708 93.3774 150.985 93.3774 155.028V206.756C93.3774 210.799 96.6581 214.076 100.705 214.076H228.694Z" fill="#3F3D56"/>
<path d="M149.855 177.984H133.137C132.716 177.984 132.373 178.327 132.373 178.748C132.373 179.169 132.716 179.511 133.137 179.511H149.855C150.276 179.511 150.619 179.169 150.619 178.748C150.619 178.327 150.276 177.984 149.855 177.984Z" fill="#06C149"/>
<path d="M175.257 177.984H158.54C158.118 177.984 157.775 178.327 157.775 178.748C157.775 179.169 158.118 179.511 158.54 179.511H175.257C175.678 179.511 176.021 179.169 176.021 178.748C176.021 178.327 175.678 177.984 175.257 177.984Z" fill="#06C149"/>
<path d="M149.855 186.332H133.137C132.716 186.332 132.373 186.674 132.373 187.095C132.373 187.516 132.716 187.859 133.137 187.859H149.855C150.276 187.859 150.619 187.516 150.619 187.095C150.619 186.674 150.276 186.332 149.855 186.332Z" fill="#06C149"/>
<path d="M175.257 186.332H158.54C158.118 186.332 157.775 186.674 157.775 187.095C157.775 187.516 158.118 187.859 158.54 187.859H175.257C175.678 187.859 176.021 187.516 176.021 187.095C176.021 186.674 175.678 186.332 175.257 186.332Z" fill="#06C149"/>
<path d="M201.423 187.095C201.423 186.674 201.081 186.332 200.659 186.332H183.942C183.521 186.332 183.178 186.674 183.178 187.095C183.178 187.516 183.521 187.859 183.942 187.859H200.659C201.081 187.859 201.423 187.516 201.423 187.095Z" fill="#06C149"/>
<path d="M140.083 171.319C140.504 171.319 140.847 170.976 140.847 170.555C140.847 170.134 140.504 169.792 140.083 169.792H123.366C122.944 169.792 122.602 170.134 122.602 170.555C122.602 170.976 122.944 171.319 123.366 171.319H140.083Z" fill="#06C149"/>
<path d="M189.315 171.008H206.032C206.454 171.008 206.796 170.666 206.796 170.245C206.796 169.824 206.454 169.481 206.032 169.481H189.315C188.894 169.481 188.551 169.824 188.551 170.245C188.551 170.666 188.894 171.008 189.315 171.008Z" fill="#06C149"/>
<path d="M147.126 171.169H181.784C182.205 171.169 182.548 170.826 182.548 170.405C182.548 169.984 182.205 169.642 181.784 169.642H147.126C146.704 169.642 146.361 169.984 146.361 170.405C146.361 170.826 146.704 171.169 147.126 171.169Z" fill="#06C149"/>
<path d="M160.763 193.916H144.046C143.624 193.916 143.281 194.259 143.281 194.68C143.281 195.101 143.624 195.443 144.046 195.443H160.763C161.184 195.443 161.527 195.101 161.527 194.68C161.527 194.259 161.184 193.916 160.763 193.916Z" fill="#06C149"/>
<path d="M214.753 154.638V206.366C214.753 210.94 211.027 214.662 206.448 214.662H154.666C150.087 214.662 146.361 210.94 146.361 206.366V154.638C146.361 150.064 150.087 146.342 154.666 146.342H206.448C211.027 146.342 214.753 150.064 214.753 154.638Z" fill="#1F222A"/>
<path d="M214.753 154.638V206.366C214.753 210.94 211.027 214.662 206.448 214.662H154.666C150.087 214.662 146.361 210.94 146.361 206.366V154.638C146.361 150.064 150.087 146.342 154.666 146.342H206.448C211.027 146.342 214.753 150.064 214.753 154.638ZM203.236 213.686C209.057 213.686 213.776 208.972 213.776 203.157V180.287C213.776 162.079 199 147.318 180.772 147.318H154.666C150.619 147.318 147.338 150.595 147.338 154.638V199.149C147.338 207.177 153.854 213.686 161.891 213.686H203.236V213.686H203.236Z" fill="#3F3D56"/>
<path d="M187.45 167.469H170.733C170.312 167.469 169.969 167.126 169.969 166.705C169.969 166.284 170.312 165.942 170.733 165.942H187.45C187.872 165.942 188.214 166.284 188.214 166.705C188.214 167.126 187.872 167.469 187.45 167.469V167.469Z" fill="#06C149"/>
<path d="M187.45 183.75H170.733C170.312 183.75 169.969 183.407 169.969 182.986C169.969 182.565 170.312 182.223 170.733 182.223H187.45C187.872 182.223 188.214 182.565 188.214 182.986C188.214 183.407 187.872 183.75 187.45 183.75V183.75Z" fill="#06C149"/>
<path d="M179.146 206.198H162.428C162.007 206.198 161.664 205.855 161.664 205.434C161.664 205.013 162.007 204.671 162.428 204.671H179.146C179.567 204.671 179.91 205.013 179.91 205.434C179.91 205.855 179.567 206.198 179.146 206.198V206.198Z" fill="#06C149"/>
<path d="M196.421 175.615H161.762C161.341 175.615 160.998 175.272 160.998 174.851C160.998 174.43 161.341 174.088 161.762 174.088H196.421C196.842 174.088 197.185 174.43 197.185 174.851C197.185 175.272 196.842 175.615 196.421 175.615V175.615Z" fill="#06C149"/>
<path d="M205.011 125.974C205.011 109.838 191.358 100.961 175.762 96.7562C155.767 91.3658 141.123 102.274 146.513 125.974C147.735 131.346 150.657 137.62 154.274 142.986H182.976C192.563 136.751 205.011 138.499 205.011 125.974H205.011Z" fill="#06C149"/>
<path d="M175.333 156.479C176.966 153.37 179.036 151.127 181.316 149.419H154.434C161.353 159.292 170.528 165.629 175.333 156.479Z" fill="#06C149"/>
<path d="M172.23 108.699C173.956 108.699 175.355 110.097 175.355 111.821V118.064H169.105V111.821C169.105 110.097 170.504 108.699 172.23 108.699ZM176.918 118.064V111.821C176.918 109.235 174.819 107.139 172.23 107.139C169.641 107.139 167.543 109.235 167.543 111.821V118.064C165.817 118.064 164.418 119.462 164.418 121.186V128.99C164.418 130.714 165.817 132.112 167.543 132.112H176.918C178.643 132.112 180.042 130.714 180.042 128.99V121.186C180.042 119.462 178.643 118.064 176.918 118.064H176.918ZM167.543 119.625H176.918C177.78 119.625 178.48 120.324 178.48 121.186V128.99C178.48 129.852 177.78 130.551 176.918 130.551H167.543C166.68 130.551 165.98 129.852 165.98 128.99V121.186C165.98 120.324 166.68 119.625 167.543 119.625Z" fill="#1F222A"/>
<path d="M127.574 145.046C127.197 148.189 128.515 150.931 130.517 151.17C132.519 151.41 134.447 149.056 134.824 145.914C134.989 144.538 134.829 143.239 134.429 142.193L135.859 128.857L129.579 128.32L128.837 141.524C128.201 142.446 127.739 143.671 127.574 145.046Z" fill="#FFB6B6"/>
<path d="M28.5778 159.099C44.3608 159.099 57.1556 146.317 57.1556 130.551C57.1556 114.784 44.3608 102.003 28.5778 102.003C12.7947 102.003 0 114.784 0 130.551C0 146.317 12.7947 159.099 28.5778 159.099Z" fill="#06C149"/>
<path d="M28.5777 117.771C30.5965 117.771 32.233 119.406 32.233 121.422V128.725H24.9224V121.422C24.9224 119.406 26.5589 117.771 28.5777 117.771ZM34.0607 128.725V121.422C34.0607 118.397 31.6059 115.945 28.5777 115.945C25.5496 115.945 23.0948 118.397 23.0948 121.422V128.725C21.076 128.725 19.4395 130.36 19.4395 132.377V141.505C19.4395 143.522 21.076 145.157 23.0948 145.157H34.0606C36.0794 145.157 37.7159 143.522 37.7159 141.505V132.377C37.7159 130.36 36.0794 128.725 34.0606 128.725H34.0607ZM23.0948 130.551H34.0606C35.07 130.551 35.8883 131.368 35.8883 132.377V141.505C35.8883 142.514 35.07 143.331 34.0606 143.331H23.0948C22.0854 143.331 21.2671 142.514 21.2671 141.505V132.377C21.2671 131.368 22.0854 130.551 23.0948 130.551Z" fill="#1F222A"/>
<path d="M129.081 65.4813C129.081 65.4813 135.92 63.5293 137.386 66.4573C138.851 69.3853 142.271 107.937 142.271 107.937L135.676 138.71L128.104 136.729L132.012 105.497L126.639 82.0732L129.081 65.4813Z" fill="#35383F"/>
<path d="M110.624 55.5775C116.707 55.5775 121.637 50.652 121.637 44.576C121.637 38.5001 116.707 33.5746 110.624 33.5746C104.542 33.5746 99.6113 38.5001 99.6113 44.576C99.6113 50.652 104.542 55.5775 110.624 55.5775Z" fill="#FFB6B6"/>
<path d="M104.899 54.5013C104.899 54.5013 95.129 54.0133 96.106 46.2053C93.6877 37.8906 95.8282 32.492 103.434 30.5893C103.434 30.5893 105.388 30.1013 105.876 30.1013C112.301 30.1013 115.646 32.0533 115.646 32.0533C115.646 32.0533 115.158 30.1205 115.646 30.5989C116.135 31.0773 116.623 32.0533 116.623 32.0533C116.623 32.0533 121.508 34.4933 121.508 39.3733C121.508 44.2533 121.508 42.3013 121.508 42.3013C121.508 42.3013 120.531 42.3013 119.554 39.3733C118.577 36.4453 112.252 38.3973 112.252 38.3973L112.715 39.3733L111.25 38.8853L109.784 40.3493L108.807 39.8613C108.807 39.8613 104.899 39.8613 105.388 39.8613C105.876 39.8613 105.536 43.1777 105.536 43.1777L101.968 47.1813L105.876 54.5013H104.899Z" fill="#2F2E41"/>
</g>
<defs>
<clipPath id="clip0_1343_97543">
<rect width="276" height="250" fill="white" transform="translate(0 0.333374)"/>
</clipPath>
</defs>
</svg>
