<svg width="20" height="20" viewBox="0 0 20 20" fill="none" xmlns="http://www.w3.org/2000/svg">
<path fill-rule="evenodd" clip-rule="evenodd" d="M13.2077 2.08392C13.7335 2.08392 14.2585 2.15808 14.7577 2.32558C17.8335 3.32558 18.9419 6.70058 18.016 9.65058C17.491 11.1581 16.6327 12.5339 15.5085 13.6581C13.8994 15.2164 12.1335 16.5997 10.2327 17.7914L10.0244 17.9172L9.8077 17.7831C7.9002 16.5997 6.12436 15.2164 4.5002 13.6497C3.38353 12.5256 2.52436 11.1581 1.99103 9.65058C1.04936 6.70058 2.1577 3.32558 5.26686 2.30808C5.50853 2.22475 5.7577 2.16642 6.0077 2.13392H6.1077C6.34186 2.09975 6.57436 2.08392 6.8077 2.08392H6.89936C7.42436 2.09975 7.9327 2.19142 8.4252 2.35892H8.47436C8.5077 2.37475 8.5327 2.39225 8.54936 2.40808C8.73353 2.46725 8.9077 2.53392 9.07436 2.62558L9.39103 2.76725C9.46755 2.80806 9.55343 2.87042 9.62766 2.92431C9.67469 2.95845 9.71704 2.9892 9.74936 3.00892C9.76296 3.01694 9.77679 3.02501 9.79072 3.03315C9.86217 3.07485 9.9366 3.1183 9.99936 3.16642C10.9252 2.45892 12.0494 2.07558 13.2077 2.08392ZM15.4244 8.08392C15.766 8.07475 16.0577 7.80058 16.0827 7.44975V7.35058C16.1077 6.18308 15.4002 5.12558 14.3244 4.71725C13.9827 4.59975 13.6077 4.78392 13.4827 5.13392C13.366 5.48392 13.5494 5.86725 13.8994 5.99142C14.4335 6.19142 14.791 6.71725 14.791 7.29975V7.32558C14.7752 7.51642 14.8327 7.70058 14.9494 7.84225C15.066 7.98392 15.241 8.06642 15.4244 8.08392Z" fill="#06C149"/>
</svg>
