<svg width="25" height="24" viewBox="0 0 25 24" fill="none" xmlns="http://www.w3.org/2000/svg">
<path d="M9.93556 20.7733V17.7156C9.93556 16.9351 10.573 16.3023 11.3592 16.3023H14.2334C14.611 16.3023 14.9731 16.4512 15.2401 16.7163C15.5071 16.9813 15.657 17.3408 15.657 17.7156V20.7733C15.6547 21.0978 15.7828 21.4099 16.0132 21.6402C16.2435 21.8705 16.5568 22 16.8837 22H18.8446C19.7604 22.0023 20.6395 21.6428 21.288 21.0008C21.9364 20.3588 22.3008 19.487 22.3008 18.5778V9.86686C22.3008 9.13246 21.9729 8.43584 21.4054 7.96467L14.7348 2.67587C13.5744 1.74856 11.9119 1.7785 10.7862 2.74698L4.26779 7.96467C3.67352 8.42195 3.31833 9.12064 3.30078 9.86686V18.5689C3.30078 20.4639 4.84816 22 6.75695 22H8.67307C9.35201 22 9.90378 21.4562 9.9087 20.7822L9.93556 20.7733Z" fill="#06C149"/>
</svg>
