<svg width="32" height="32" viewBox="0 0 32 32" fill="none" xmlns="http://www.w3.org/2000/svg">
<path d="M9.69713 4.65443V14.9967C9.69713 15.1905 9.48649 15.3133 9.31132 15.2303C8.20131 14.7045 6.88564 14.5443 5.49945 15.0289C3.8103 15.6339 2.51192 17.134 2.20938 18.8988C2.06952 19.6929 2.12179 20.5089 2.36183 21.2787C2.60187 22.0484 3.02269 22.7495 3.58912 23.3233C4.15555 23.8972 4.85113 24.3271 5.61769 24.5771C6.38426 24.8271 7.19954 24.8899 7.99537 24.7604C10.4661 24.3696 12.2183 22.1006 12.2183 19.5921V13.9763C12.2183 13.816 12.366 13.6963 12.5228 13.7297L22.1031 15.766C22.2195 15.7908 22.3028 15.8936 22.3028 16.0126V20.0389C22.3028 20.2327 22.0921 20.3556 21.917 20.2726C20.8069 19.7467 19.4913 19.5865 18.1051 20.0711C16.4159 20.6762 15.1176 22.1763 14.815 23.941C14.6752 24.7351 14.7274 25.5512 14.9675 26.3209C15.2075 27.0907 15.6283 27.7917 16.1948 28.3656C16.7612 28.9394 17.4568 29.3693 18.2233 29.6193C18.9899 29.8693 19.8052 29.9322 20.601 29.8027C23.0717 29.4119 24.8239 27.1429 24.8239 24.6344V12.4699C24.8239 12.3307 24.9368 12.2178 25.076 12.2178H27.345C28.7316 12.2178 29.8661 11.0833 29.8661 9.69668C29.8661 8.31006 28.7316 7.17555 27.345 7.17555H24.8239C23.4373 7.17555 22.3028 8.31006 22.3028 9.69668V12.9197C22.3028 13.08 22.1551 13.1996 21.9982 13.1663L12.418 11.1299C12.3015 11.1052 12.2183 11.0024 12.2183 10.8833V7.42767C12.2183 7.28843 12.3311 7.17555 12.4704 7.17555H14.7394C16.126 7.17555 17.2605 6.04105 17.2605 4.65443C17.2605 3.26781 16.126 2.1333 14.7394 2.1333H12.2183C10.8316 2.1333 9.69713 3.26781 9.69713 4.65443Z" fill="url(#paint0_linear_1732_17477)"/>
<defs>
<linearGradient id="paint0_linear_1732_17477" x1="29.8661" y1="29.8683" x2="-3.13433" y2="20.3007" gradientUnits="userSpaceOnUse">
<stop stop-color="#06C149"/>
<stop offset="1" stop-color="#33EB75"/>
</linearGradient>
</defs>
</svg>
