<svg width="28" height="29" viewBox="0 0 28 29" fill="none" xmlns="http://www.w3.org/2000/svg">
<path d="M11.375 14.792V21.792L17.5 18.292L11.375 14.792Z" fill="#212121"/>
<path d="M22.75 26.167H5.25C4.78601 26.1665 4.34116 25.982 4.01307 25.6539C3.68499 25.3258 3.50046 24.881 3.5 24.417V12.167C3.50046 11.703 3.68499 11.2582 4.01307 10.9301C4.34116 10.602 4.78601 10.4175 5.25 10.417H22.75C23.214 10.4175 23.6588 10.602 23.9869 10.9301C24.315 11.2582 24.4995 11.703 24.5 12.167V24.417C24.4995 24.881 24.315 25.3258 23.9869 25.6539C23.6588 25.982 23.214 26.1665 22.75 26.167ZM5.25 12.167V24.417H22.75V12.167H5.25ZM5.25 6.91699H22.75V8.66699H5.25V6.91699ZM7 3.41699H21V5.16699H7V3.41699Z" fill="#212121"/>
</svg>
