<svg width="32" height="32" viewBox="0 0 32 32" fill="none" xmlns="http://www.w3.org/2000/svg">
<path fill-rule="evenodd" clip-rule="evenodd" d="M2.66602 16.0077C2.66602 8.64834 8.65057 2.66667 15.9993 2.66667C23.3481 2.66667 29.3327 8.64834 29.3327 16.0077C29.3327 23.3517 23.3481 29.3333 15.9993 29.3333C8.65057 29.3333 2.66602 23.3517 2.66602 16.0077ZM20.89 17.3571C21.0315 17.2156 21.2117 16.9969 21.2503 16.9455C21.4562 16.6754 21.5592 16.3409 21.5592 16.0077C21.5592 15.6334 21.4434 15.2861 21.2246 15.0031C21.2066 14.9851 21.1715 14.9469 21.1258 14.8971C21.0402 14.804 20.9173 14.6702 20.7999 14.5528C19.7445 13.4208 16.9903 11.5684 15.5489 11.0024C15.3301 10.9137 14.7767 10.7194 14.4807 10.7065C14.1975 10.7065 13.9273 10.7709 13.6699 10.8995C13.3481 11.0796 13.0907 11.3626 12.9492 11.6971C12.8591 11.9286 12.7175 12.6233 12.7175 12.6361C12.5759 13.3951 12.4987 14.63 12.4987 15.9936C12.4987 17.2941 12.5759 18.4763 12.6918 19.2481C12.6949 19.2513 12.706 19.3065 12.7232 19.3923C12.7755 19.653 12.8844 20.1961 13.0006 20.4187C13.2838 20.959 13.8372 21.2935 14.4292 21.2935H14.4807C14.8668 21.2806 15.6776 20.9461 15.6776 20.9333C17.0418 20.3673 19.7317 18.6049 20.8127 17.4343L20.89 17.3571Z" fill="url(#paint0_linear_1463_18399)"/>
<defs>
<linearGradient id="paint0_linear_1463_18399" x1="29.3327" y1="29.3333" x2="-2.39826" y2="20.1332" gradientUnits="userSpaceOnUse">
<stop stop-color="#06C149"/>
<stop offset="1" stop-color="#33EB75"/>
</linearGradient>
</defs>
</svg>
