<svg width="28" height="29" viewBox="0 0 28 29" fill="none" xmlns="http://www.w3.org/2000/svg">
<path d="M5.16217 22.1122C4.28717 21.0816 3.5969 19.9196 3.09134 18.6262C2.58579 17.3335 2.33301 15.958 2.33301 14.4997C2.33301 12.8858 2.63945 11.3691 3.25234 9.94967C3.86445 8.53023 4.69551 7.29551 5.74551 6.24551C6.79551 5.19551 8.03023 4.36406 9.44967 3.75117C10.8691 3.13906 12.3858 2.83301 13.9997 2.83301C15.6136 2.83301 17.1302 3.13906 18.5497 3.75117C19.9691 4.36406 21.2038 5.19551 22.2538 6.24551C23.3038 7.29551 24.1349 8.53023 24.747 9.94967C25.3599 11.3691 25.6663 12.8858 25.6663 14.4997C25.6663 15.958 25.4136 17.3386 24.908 18.6413C24.4025 19.9441 23.7122 21.1108 22.8372 22.1413C22.6233 22.3747 22.3608 22.4913 22.0497 22.4913C21.7386 22.4913 21.4663 22.3747 21.233 22.1413C21.0191 21.9275 20.9075 21.6599 20.8982 21.3387C20.8881 21.0182 20.99 20.7316 21.2038 20.4788C21.865 19.6622 22.3853 18.7483 22.7648 17.7372C23.1436 16.7261 23.333 15.6469 23.333 14.4997C23.333 11.8941 22.4288 9.68717 20.6205 7.87884C18.8122 6.07051 16.6052 5.16634 13.9997 5.16634C11.3941 5.16634 9.18717 6.07051 7.37884 7.87884C5.57051 9.68717 4.66634 11.8941 4.66634 14.4997C4.66634 15.6469 4.85612 16.721 5.23567 17.722C5.61445 18.7238 6.14412 19.633 6.82467 20.4497C7.03856 20.7025 7.14084 20.9891 7.13151 21.3095C7.1214 21.6307 6.99967 21.908 6.76634 22.1413C6.53301 22.3747 6.26079 22.4863 5.94967 22.4762C5.63856 22.4668 5.37606 22.3455 5.16217 22.1122ZM8.45801 18.7872C8.01079 18.1844 7.65612 17.5233 7.39401 16.8038C7.13112 16.0844 6.99967 15.3163 6.99967 14.4997C6.99967 12.5552 7.68023 10.9025 9.04134 9.54134C10.4025 8.18023 12.0552 7.49967 13.9997 7.49967C15.9441 7.49967 17.5969 8.18023 18.958 9.54134C20.3191 10.9025 20.9997 12.5552 20.9997 14.4997C20.9997 15.3163 20.8686 16.0941 20.6065 16.833C20.3436 17.5719 19.9886 18.233 19.5413 18.8163C19.3469 19.0691 19.0891 19.1955 18.7678 19.1955C18.4474 19.1955 18.1608 19.0691 17.908 18.8163C17.6941 18.6025 17.5821 18.34 17.572 18.0288C17.5627 17.7177 17.6552 17.4163 17.8497 17.1247C18.1219 16.7358 18.3261 16.3228 18.4622 15.8857C18.5983 15.4478 18.6663 14.9858 18.6663 14.4997C18.6663 13.2163 18.2094 12.1177 17.2955 11.2038C16.3816 10.29 15.283 9.83301 13.9997 9.83301C12.7163 9.83301 11.6177 10.29 10.7038 11.2038C9.78995 12.1177 9.33301 13.2163 9.33301 14.4997C9.33301 15.0052 9.40612 15.4719 9.55234 15.8997C9.69778 16.3275 9.8969 16.7358 10.1497 17.1247C10.3441 17.4163 10.4316 17.7224 10.4122 18.0428C10.3927 18.3641 10.2761 18.6316 10.0622 18.8455C9.82884 19.0788 9.55195 19.1905 9.23151 19.1803C8.91029 19.171 8.65245 19.04 8.45801 18.7872ZM13.9997 26.1663C13.6691 26.1663 13.3922 26.0543 13.169 25.8303C12.945 25.6071 12.833 25.3302 12.833 24.9997V16.5122C12.483 16.2983 12.2011 16.021 11.9872 15.6803C11.7733 15.3405 11.6663 14.9469 11.6663 14.4997C11.6663 13.858 11.895 13.3085 12.3523 12.8512C12.8089 12.3946 13.358 12.1663 13.9997 12.1663C14.6413 12.1663 15.1908 12.3946 15.6482 12.8512C16.1047 13.3085 16.333 13.858 16.333 14.4997C16.333 14.9469 16.2261 15.3455 16.0122 15.6955C15.7983 16.0455 15.5163 16.3177 15.1663 16.5122V24.9997C15.1663 25.3302 15.0547 25.6071 14.8315 25.8303C14.6075 26.0543 14.3302 26.1663 13.9997 26.1663Z" fill="#212121"/>
</svg>
