<svg width="28" height="29" viewBox="0 0 28 29" fill="none" xmlns="http://www.w3.org/2000/svg">
<path d="M5.16315 22.1122C4.28815 21.0816 3.59787 19.9196 3.09232 18.6262C2.58676 17.3335 2.33398 15.958 2.33398 14.4997C2.33398 12.8858 2.64043 11.3691 3.25332 9.94967C3.86543 8.53023 4.69648 7.29551 5.74648 6.24551C6.79648 5.19551 8.03121 4.36406 9.45065 3.75117C10.8701 3.13906 12.3868 2.83301 14.0007 2.83301C15.6145 2.83301 17.1312 3.13906 18.5507 3.75117C19.9701 4.36406 21.2048 5.19551 22.2548 6.24551C23.3048 7.29551 24.1359 8.53023 24.748 9.94967C25.3609 11.3691 25.6673 12.8858 25.6673 14.4997C25.6673 15.958 25.4145 17.3386 24.909 18.6413C24.4034 19.9441 23.7132 21.1108 22.8382 22.1413C22.6243 22.3747 22.3618 22.4913 22.0506 22.4913C21.7395 22.4913 21.4673 22.3747 21.234 22.1413C21.0201 21.9275 20.9085 21.6599 20.8992 21.3387C20.889 21.0182 20.9909 20.7316 21.2048 20.4788C21.8659 19.6622 22.3863 18.7483 22.7658 17.7372C23.1446 16.7261 23.334 15.6469 23.334 14.4997C23.334 11.8941 22.4298 9.68717 20.6215 7.87884C18.8131 6.07051 16.6062 5.16634 14.0007 5.16634C11.3951 5.16634 9.18815 6.07051 7.37982 7.87884C5.57148 9.68717 4.66732 11.8941 4.66732 14.4997C4.66732 15.6469 4.8571 16.721 5.23665 17.722C5.61543 18.7238 6.1451 19.633 6.82565 20.4497C7.03954 20.7025 7.14182 20.9891 7.13248 21.3095C7.12237 21.6307 7.00065 21.908 6.76732 22.1413C6.53398 22.3747 6.26176 22.4863 5.95065 22.4762C5.63954 22.4668 5.37704 22.3455 5.16315 22.1122ZM8.45898 18.7872C8.01176 18.1844 7.6571 17.5233 7.39498 16.8038C7.1321 16.0844 7.00065 15.3163 7.00065 14.4997C7.00065 12.5552 7.68121 10.9025 9.04232 9.54134C10.4034 8.18023 12.0562 7.49967 14.0007 7.49967C15.9451 7.49967 17.5979 8.18023 18.959 9.54134C20.3201 10.9025 21.0007 12.5552 21.0007 14.4997C21.0007 15.3163 20.8696 16.0941 20.6075 16.833C20.3446 17.5719 19.9895 18.233 19.5423 18.8163C19.3479 19.0691 19.09 19.1955 18.7688 19.1955C18.4484 19.1955 18.1618 19.0691 17.909 18.8163C17.6951 18.6025 17.5831 18.34 17.573 18.0288C17.5637 17.7177 17.6562 17.4163 17.8507 17.1247C18.1229 16.7358 18.327 16.3228 18.4632 15.8857C18.5993 15.4478 18.6673 14.9858 18.6673 14.4997C18.6673 13.2163 18.2104 12.1177 17.2965 11.2038C16.3826 10.29 15.284 9.83301 14.0007 9.83301C12.7173 9.83301 11.6187 10.29 10.7048 11.2038C9.79093 12.1177 9.33398 13.2163 9.33398 14.4997C9.33398 15.0052 9.40709 15.4719 9.55332 15.8997C9.69876 16.3275 9.89787 16.7358 10.1507 17.1247C10.3451 17.4163 10.4326 17.7224 10.4132 18.0428C10.3937 18.3641 10.277 18.6316 10.0632 18.8455C9.82982 19.0788 9.55293 19.1905 9.23248 19.1803C8.91126 19.171 8.65343 19.04 8.45898 18.7872V18.7872ZM14.0007 26.1663C13.6701 26.1663 13.3932 26.0543 13.17 25.8303C12.946 25.6071 12.834 25.3302 12.834 24.9997V16.5122C12.484 16.2983 12.202 16.021 11.9882 15.6803C11.7743 15.3405 11.6673 14.9469 11.6673 14.4997C11.6673 13.858 11.896 13.3085 12.3533 12.8512C12.8099 12.3946 13.359 12.1663 14.0007 12.1663C14.6423 12.1663 15.1918 12.3946 15.6492 12.8512C16.1057 13.3085 16.334 13.858 16.334 14.4997C16.334 14.9469 16.227 15.3455 16.0132 15.6955C15.7993 16.0455 15.5173 16.3177 15.1673 16.5122V24.9997C15.1673 25.3302 15.0557 25.6071 14.8325 25.8303C14.6085 26.0543 14.3312 26.1663 14.0007 26.1663Z" fill="white"/>
</svg>
