<svg width="20" height="20" viewBox="0 0 20 20" fill="none" xmlns="http://www.w3.org/2000/svg">
<path fill-rule="evenodd" clip-rule="evenodd" d="M9.8698 18.0516C6.79329 18.0516 4.16602 17.5729 4.16602 15.6555C4.16602 13.7382 6.77662 11.9683 9.8698 11.9683C12.9463 11.9683 15.5736 13.7211 15.5736 15.6384C15.5736 17.5549 12.963 18.0516 9.8698 18.0516Z" stroke="#FAFAFA" stroke-width="1.5" stroke-linecap="round" stroke-linejoin="round"/>
<path fill-rule="evenodd" clip-rule="evenodd" d="M9.86311 9.31136C11.8821 9.31136 13.5184 7.675 13.5184 5.65606C13.5184 3.63712 11.8821 2 9.86311 2C7.84417 2 6.20705 3.63712 6.20705 5.65606C6.20023 7.66818 7.82523 9.30455 9.83736 9.31136C9.84645 9.31136 9.85478 9.31136 9.86311 9.31136Z" stroke="#FAFAFA" stroke-width="1.5" stroke-linecap="round" stroke-linejoin="round"/>
</svg>
