<svg width="20" height="20" viewBox="0 0 20 20" fill="none" xmlns="http://www.w3.org/2000/svg">
<path fill-rule="evenodd" clip-rule="evenodd" d="M9.87078 18.0516C6.79426 18.0516 4.16699 17.5729 4.16699 15.6555C4.16699 13.7382 6.7776 11.9683 9.87078 11.9683C12.9473 11.9683 15.5746 13.7211 15.5746 15.6384C15.5746 17.5549 12.964 18.0516 9.87078 18.0516Z" stroke="#212121" stroke-width="1.5" stroke-linecap="round" stroke-linejoin="round"/>
<path fill-rule="evenodd" clip-rule="evenodd" d="M9.86507 9.31136C11.884 9.31136 13.5204 7.675 13.5204 5.65606C13.5204 3.63712 11.884 2 9.86507 2C7.84613 2 6.20901 3.63712 6.20901 5.65606C6.20219 7.66818 7.82719 9.30455 9.83931 9.31136C9.8484 9.31136 9.85673 9.31136 9.86507 9.31136Z" stroke="#212121" stroke-width="1.5" stroke-linecap="round" stroke-linejoin="round"/>
</svg>
