<svg width="24" height="25" viewBox="0 0 24 25" fill="none" xmlns="http://www.w3.org/2000/svg">
<path d="M18.0065 14.0323C17.4157 14.0362 16.833 14.171 16.3005 14.4269C15.768 14.6828 15.2987 15.0535 14.9265 15.5123L9.8265 13.1623C10.0663 12.4281 10.0663 11.6366 9.8265 10.9023L14.9265 8.55234C15.5281 9.27831 16.3668 9.76842 17.2946 9.93618C18.2225 10.1039 19.1797 9.93857 19.9974 9.46924C20.8152 8.99992 21.4409 8.25682 21.764 7.37108C22.0872 6.48535 22.0871 5.51392 21.7638 4.62825C21.4405 3.74257 20.8146 2.99958 19.9968 2.53041C19.179 2.06123 18.2217 1.89603 17.2939 2.06396C16.3662 2.2319 15.5275 2.72216 14.926 3.44824C14.3245 4.17431 13.9989 5.08952 14.0065 6.03234C14.0095 6.27057 14.0329 6.50811 14.0765 6.74234L8.7965 9.17234C8.23358 8.62192 7.52074 8.24986 6.7473 8.10277C5.97386 7.95568 5.17422 8.04011 4.44855 8.34547C3.72288 8.65084 3.10346 9.16356 2.6679 9.8194C2.23234 10.4752 2 11.245 2 12.0323C2 12.8196 2.23234 13.5894 2.6679 14.2453C3.10346 14.9011 3.72288 15.4138 4.44855 15.7192C5.17422 16.0246 5.97386 16.109 6.7473 15.9619C7.52074 15.8148 8.23358 15.4428 8.7965 14.8923L14.0765 17.3223C14.0329 17.5566 14.0095 17.7941 14.0065 18.0323C14.0065 18.8235 14.2411 19.5968 14.6806 20.2546C15.1201 20.9124 15.7449 21.4251 16.4758 21.7279C17.2067 22.0306 18.0109 22.1098 18.7869 21.9555C19.5628 21.8011 20.2755 21.4202 20.8349 20.8608C21.3943 20.3014 21.7753 19.5886 21.9296 18.8127C22.084 18.0368 22.0048 17.2325 21.702 16.5016C21.3993 15.7707 20.8866 15.146 20.2288 14.7065C19.571 14.2669 18.7976 14.0323 18.0065 14.0323ZM18.0065 4.03234C18.4021 4.03234 18.7887 4.14964 19.1176 4.3694C19.4465 4.58916 19.7029 4.90152 19.8543 5.26697C20.0056 5.63243 20.0452 6.03456 19.9681 6.42252C19.8909 6.81048 19.7004 7.16685 19.4207 7.44655C19.141 7.72626 18.7846 7.91674 18.3967 7.99391C18.0087 8.07108 17.6066 8.03148 17.2411 7.8801C16.8757 7.72872 16.5633 7.47238 16.3436 7.14348C16.1238 6.81458 16.0065 6.4279 16.0065 6.03234C16.0065 5.50191 16.2172 4.9932 16.5923 4.61813C16.9674 4.24305 17.4761 4.03234 18.0065 4.03234ZM6.0065 14.0323C5.61094 14.0323 5.22426 13.915 4.89536 13.6953C4.56646 13.4755 4.31011 13.1632 4.15874 12.7977C4.00736 12.4323 3.96776 12.0301 4.04493 11.6422C4.1221 11.2542 4.31258 10.8978 4.59228 10.6181C4.87199 10.3384 5.22836 10.1479 5.61632 10.0708C6.00428 9.9936 6.40641 10.0332 6.77186 10.1846C7.13732 10.336 7.44967 10.5923 7.66944 10.9212C7.8892 11.2501 8.0065 11.6368 8.0065 12.0323C8.0065 12.5628 7.79578 13.0715 7.42071 13.4466C7.04564 13.8216 6.53693 14.0323 6.0065 14.0323ZM18.0065 20.0323C17.6109 20.0323 17.2243 19.915 16.8954 19.6953C16.5665 19.4755 16.3101 19.1632 16.1587 18.7977C16.0074 18.4323 15.9678 18.0301 16.0449 17.6422C16.1221 17.2542 16.3126 16.8978 16.5923 16.6181C16.872 16.3384 17.2284 16.1479 17.6163 16.0708C18.0043 15.9936 18.4064 16.0332 18.7719 16.1846C19.1373 16.336 19.4497 16.5923 19.6694 16.9212C19.8892 17.2501 20.0065 17.6368 20.0065 18.0323C20.0065 18.5628 19.7958 19.0715 19.4207 19.4466C19.0456 19.8216 18.5369 20.0323 18.0065 20.0323Z" fill="white"/>
</svg>
