<svg width="20" height="20" viewBox="0 0 20 20" fill="none" xmlns="http://www.w3.org/2000/svg">
<path d="M8.76074 12.7216L8.67481 12.8466C8.15382 13.5751 7.46685 14.169 6.67075 14.5793C5.87464 14.9896 4.99228 15.2044 4.09668 15.206H2.29199C2.12623 15.206 1.96726 15.1401 1.85005 15.0229C1.73284 14.9057 1.66699 14.7468 1.66699 14.581C1.66699 14.4152 1.73284 14.2563 1.85005 14.1391C1.96726 14.0218 2.12623 13.956 2.29199 13.956H4.09668C4.79237 13.9541 5.47761 13.7865 6.09573 13.4673C6.71385 13.148 7.2471 12.6862 7.65137 12.1201L7.74512 11.9951C7.79113 11.9243 7.851 11.8635 7.92112 11.8165C7.99124 11.7695 8.07016 11.7372 8.15312 11.7215C8.23608 11.7058 8.32135 11.7071 8.40379 11.7253C8.48624 11.7435 8.56414 11.7782 8.6328 11.8273C8.70147 11.8765 8.75947 11.939 8.8033 12.0111C8.84714 12.0833 8.87591 12.1636 8.88786 12.2471C8.89982 12.3307 8.89472 12.4158 8.87287 12.4974C8.85102 12.5789 8.81288 12.6552 8.76074 12.7216V12.7216ZM10.9639 8.56537C11.0309 8.61341 11.1069 8.64769 11.1873 8.66623C11.2677 8.68478 11.3509 8.68722 11.4323 8.67342C11.5136 8.65962 11.5914 8.62985 11.6612 8.58583C11.731 8.54181 11.7914 8.4844 11.8389 8.41693L11.9326 8.29193C12.329 7.73439 12.8509 7.27777 13.4561 6.95888C14.0613 6.63998 14.733 6.46772 15.417 6.45599V7.70599C15.4166 7.82938 15.4528 7.95013 15.5209 8.05301C15.589 8.15589 15.6861 8.23631 15.7998 8.28412C15.8769 8.31473 15.959 8.33063 16.042 8.33099C16.208 8.33029 16.3673 8.26598 16.4873 8.15131L18.3623 6.27631C18.4797 6.15781 18.5455 5.99777 18.5455 5.83099C18.5455 5.66421 18.4797 5.50418 18.3623 5.38568L16.4873 3.51068C16.3969 3.42589 16.2844 3.36842 16.1627 3.34492C16.0411 3.32142 15.9152 3.33284 15.7998 3.37787C15.6861 3.42568 15.589 3.5061 15.5209 3.60898C15.4528 3.71186 15.4166 3.8326 15.417 3.95599V5.20599C14.5333 5.21863 13.665 5.43873 12.882 5.84855C12.0989 6.25837 11.4232 6.84645 10.9092 7.56537L10.8232 7.69037C10.7748 7.75698 10.74 7.8325 10.7209 7.9126C10.7017 7.9927 10.6986 8.07579 10.7117 8.1571C10.7247 8.23842 10.7537 8.31634 10.797 8.38641C10.8403 8.45647 10.897 8.51729 10.9639 8.56537ZM16.4873 12.2607C16.3969 12.1759 16.2844 12.1184 16.1627 12.0949C16.0411 12.0714 15.9152 12.0828 15.7998 12.1279C15.6861 12.1757 15.589 12.2561 15.5209 12.359C15.4528 12.4619 15.4166 12.5826 15.417 12.706V13.956C14.733 13.9443 14.0613 13.772 13.4561 13.4531C12.8509 13.1342 12.329 12.6776 11.9326 12.1201L8.67481 7.56537C8.15382 6.83689 7.46685 6.24294 6.67075 5.83266C5.87464 5.42238 4.99228 5.20757 4.09668 5.20599H2.29199C2.12623 5.20599 1.96726 5.27184 1.85005 5.38905C1.73284 5.50626 1.66699 5.66523 1.66699 5.83099C1.66699 5.99675 1.73284 6.15573 1.85005 6.27294C1.96726 6.39015 2.12623 6.45599 2.29199 6.45599H4.09668C4.79237 6.45793 5.47761 6.62545 6.09573 6.94469C6.71385 7.26394 7.2471 7.72575 7.65137 8.29193L10.9092 12.8466C11.4232 13.5655 12.0989 14.1536 12.882 14.5634C13.665 14.9733 14.5333 15.1934 15.417 15.206V16.456C15.4166 16.5794 15.4528 16.7001 15.5209 16.803C15.589 16.9059 15.6861 16.9863 15.7998 17.0341C15.8769 17.0647 15.959 17.0806 16.042 17.081C16.208 17.0803 16.3673 17.016 16.4873 16.9013L18.3623 15.0263C18.4797 14.9078 18.5455 14.7478 18.5455 14.581C18.5455 14.4142 18.4797 14.2542 18.3623 14.1357L16.4873 12.2607Z" fill="#212121"/>
</svg>
