<svg width="80" height="81" viewBox="0 0 80 81" fill="none" xmlns="http://www.w3.org/2000/svg">
<rect y="0.666748" width="80" height="80" rx="40" fill="#06C149" fill-opacity="0.08"/>
<path fill-rule="evenodd" clip-rule="evenodd" d="M26.667 40.6869C26.667 33.663 32.2803 27.3335 40.027 27.3335C47.6003 27.3335 53.3337 33.5428 53.3337 40.6468C53.3337 48.8858 46.6137 54.0002 40.0003 54.0002C37.8137 54.0002 35.387 53.4126 33.4403 52.2642C32.7603 51.8503 32.187 51.5431 31.4537 51.7835L28.7603 52.5847C28.0803 52.7984 27.467 52.2642 27.667 51.5431L28.5603 48.552C28.707 48.138 28.6803 47.6974 28.467 47.3502C27.3203 45.2404 26.667 42.9302 26.667 40.6869ZM38.267 40.6869C38.267 41.6349 39.027 42.3961 39.9737 42.4094C40.9203 42.4094 41.6803 41.6349 41.6803 40.7002C41.6803 39.7521 40.9203 38.991 39.9737 38.991C39.0403 38.9776 38.267 39.7521 38.267 40.6869ZM44.4137 40.7002C44.4137 41.6349 45.1737 42.4094 46.1203 42.4094C47.067 42.4094 47.827 41.6349 47.827 40.7002C47.827 39.7521 47.067 38.991 46.1203 38.991C45.1737 38.991 44.4137 39.7521 44.4137 40.7002ZM33.827 42.4094C32.8937 42.4094 32.1203 41.6349 32.1203 40.7002C32.1203 39.7521 32.8803 38.991 33.827 38.991C34.7737 38.991 35.5337 39.7521 35.5337 40.7002C35.5337 41.6349 34.7737 42.3961 33.827 42.4094Z" fill="url(#paint0_linear_827_17319)"/>
<defs>
<linearGradient id="paint0_linear_827_17319" x1="53.3337" y1="54.0002" x2="21.6027" y2="44.8001" gradientUnits="userSpaceOnUse">
<stop stop-color="#06C149"/>
<stop offset="1" stop-color="#1ADF61"/>
</linearGradient>
</defs>
</svg>
