<svg width="28" height="29" viewBox="0 0 28 29" fill="none" xmlns="http://www.w3.org/2000/svg">
<path d="M7.00065 22.1688C9.57432 22.1688 11.6673 20.0758 11.6673 17.5022V5.66634L22.1673 9.48367V18.152C21.4613 17.7314 20.6558 17.507 19.834 17.5022C17.2603 17.5022 15.1673 19.5952 15.1673 22.1688C15.1673 24.7425 17.2603 26.8355 19.834 26.8355C22.4076 26.8355 24.5007 24.7425 24.5007 22.1688V8.667C24.5008 8.42764 24.4272 8.19403 24.2898 7.99801C24.1525 7.80198 23.958 7.65305 23.733 7.5715L10.8997 2.90484C10.7235 2.84043 10.5344 2.8195 10.3484 2.84382C10.1624 2.86814 9.98499 2.937 9.8313 3.04454C9.67761 3.15207 9.55215 3.29512 9.46557 3.46152C9.37899 3.62792 9.33385 3.81276 9.33398 4.00034V13.4853C8.628 13.0647 7.82243 12.8404 7.00065 12.8355C4.42698 12.8355 2.33398 14.9285 2.33398 17.5022C2.33398 20.0758 4.42698 22.1688 7.00065 22.1688Z" fill="white"/>
</svg>
