<svg width="28" height="29" viewBox="0 0 28 29" fill="none" xmlns="http://www.w3.org/2000/svg">
<path d="M6.99967 22.1688C9.57334 22.1688 11.6663 20.0758 11.6663 17.5022V5.66634L22.1663 9.48367V18.152C21.4604 17.7314 20.6548 17.507 19.833 17.5022C17.2593 17.5022 15.1663 19.5952 15.1663 22.1688C15.1663 24.7425 17.2593 26.8355 19.833 26.8355C22.4067 26.8355 24.4997 24.7425 24.4997 22.1688V8.667C24.4998 8.42764 24.4262 8.19403 24.2889 7.99801C24.1515 7.80198 23.9571 7.65305 23.732 7.5715L10.8987 2.90484C10.7225 2.84043 10.5334 2.8195 10.3474 2.84382C10.1614 2.86814 9.98402 2.937 9.83033 3.04454C9.67664 3.15207 9.55117 3.29512 9.46459 3.46152C9.37801 3.62792 9.33287 3.81276 9.33301 4.00034V13.4853C8.62702 13.0647 7.82146 12.8404 6.99967 12.8355C4.42601 12.8355 2.33301 14.9285 2.33301 17.5022C2.33301 20.0758 4.42601 22.1688 6.99967 22.1688Z" fill="#212121"/>
</svg>
