<svg width="20" height="20" viewBox="0 0 20 20" fill="none" xmlns="http://www.w3.org/2000/svg">
<path fill-rule="evenodd" clip-rule="evenodd" d="M6.39102 1.66658H13.616C16.441 1.66658 18.3327 3.64991 18.3327 6.59991V13.4091C18.3327 16.3499 16.441 18.3332 13.616 18.3332H6.39102C3.56602 18.3332 1.66602 16.3499 1.66602 13.4091V6.59991C1.66602 3.64991 3.56602 1.66658 6.39102 1.66658ZM9.52435 12.4916L13.4827 8.53325C13.766 8.24991 13.766 7.79158 13.4827 7.49991C13.1993 7.21658 12.7327 7.21658 12.4493 7.49991L9.00768 10.9416L7.54935 9.48325C7.26602 9.19991 6.79935 9.19991 6.51602 9.48325C6.23268 9.76658 6.23268 10.2249 6.51602 10.5166L8.49935 12.4916C8.64102 12.6332 8.82435 12.6999 9.00768 12.6999C9.19935 12.6999 9.38268 12.6332 9.52435 12.4916Z" fill="#06C149"/>
</svg>
