<svg width="29" height="28" viewBox="0 0 29 28" fill="none" xmlns="http://www.w3.org/2000/svg">
<path d="M11.9997 4.66659C11.6691 4.66659 11.3922 4.55458 11.169 4.33059C10.945 4.10736 10.833 3.83047 10.833 3.49992C10.833 3.16936 10.945 2.89209 11.169 2.66809C11.3922 2.44486 11.6691 2.33325 11.9997 2.33325H16.6663C16.9969 2.33325 17.2742 2.44486 17.4982 2.66809C17.7214 2.89209 17.833 3.16936 17.833 3.49992C17.833 3.83047 17.7214 4.10736 17.4982 4.33059C17.2742 4.55458 16.9969 4.66659 16.6663 4.66659H11.9997ZM14.333 17.4999C14.6636 17.4999 14.9408 17.3879 15.1648 17.1639C15.3881 16.9407 15.4997 16.6638 15.4997 16.3333V11.6666C15.4997 11.336 15.3881 11.0588 15.1648 10.8348C14.9408 10.6115 14.6636 10.4999 14.333 10.4999C14.0025 10.4999 13.7256 10.6115 13.5023 10.8348C13.2783 11.0588 13.1663 11.336 13.1663 11.6666V16.3333C13.1663 16.6638 13.2783 16.9407 13.5023 17.1639C13.7256 17.3879 14.0025 17.4999 14.333 17.4999ZM14.333 26.8333C12.8941 26.8333 11.5377 26.5564 10.2637 26.0026C8.99045 25.448 7.87745 24.6944 6.92467 23.7416C5.9719 22.7888 5.21823 21.6758 4.66367 20.4026C4.1099 19.1286 3.83301 17.7721 3.83301 16.3333C3.83301 14.8944 4.1099 13.5379 4.66367 12.2639C5.21823 10.9907 5.9719 9.8777 6.92467 8.92492C7.87745 7.97214 8.99045 7.21886 10.2637 6.66508C11.5377 6.11053 12.8941 5.83325 14.333 5.83325C15.5386 5.83325 16.6955 6.0277 17.8038 6.41658C18.9122 6.80547 19.9525 7.36936 20.9247 8.10825L21.7705 7.26242C21.9844 7.04853 22.2469 6.94159 22.558 6.94159C22.8691 6.94159 23.1413 7.05825 23.3747 7.29158C23.5886 7.50547 23.6955 7.7777 23.6955 8.10825C23.6955 8.43881 23.5886 8.71103 23.3747 8.92492L22.558 9.74158C23.2969 10.7138 23.8608 11.7541 24.2497 12.8624C24.6386 13.9708 24.833 15.1277 24.833 16.3333C24.833 17.7721 24.5561 19.1286 24.0023 20.4026C23.4478 21.6758 22.6941 22.7888 21.7413 23.7416C20.7886 24.6944 19.6756 25.448 18.4023 26.0026C17.1283 26.5564 15.7719 26.8333 14.333 26.8333ZM14.333 24.4999C16.5886 24.4999 18.5136 23.7027 20.108 22.1083C21.7025 20.5138 22.4997 18.5888 22.4997 16.3333C22.4997 14.0777 21.7025 12.1527 20.108 10.5583C18.5136 8.96381 16.5886 8.16658 14.333 8.16658C12.0775 8.16658 10.1525 8.96381 8.55801 10.5583C6.96356 12.1527 6.16634 14.0777 6.16634 16.3333C6.16634 18.5888 6.96356 20.5138 8.55801 22.1083C10.1525 23.7027 12.0775 24.4999 14.333 24.4999Z" fill="#212121"/>
</svg>
