<svg width="29" height="28" viewBox="0 0 29 28" fill="none" xmlns="http://www.w3.org/2000/svg">
<path d="M12.0007 4.66659C11.6701 4.66659 11.3932 4.55458 11.17 4.33059C10.946 4.10736 10.834 3.83047 10.834 3.49992C10.834 3.16936 10.946 2.89209 11.17 2.66809C11.3932 2.44486 11.6701 2.33325 12.0007 2.33325H16.6673C16.9979 2.33325 17.2752 2.44486 17.4992 2.66809C17.7224 2.89209 17.834 3.16936 17.834 3.49992C17.834 3.83047 17.7224 4.10736 17.4992 4.33059C17.2752 4.55458 16.9979 4.66659 16.6673 4.66659H12.0007ZM14.334 17.4999C14.6645 17.4999 14.9418 17.3879 15.1658 17.1639C15.389 16.9407 15.5007 16.6638 15.5007 16.3333V11.6666C15.5007 11.336 15.389 11.0588 15.1658 10.8348C14.9418 10.6115 14.6645 10.4999 14.334 10.4999C14.0034 10.4999 13.7265 10.6115 13.5033 10.8348C13.2793 11.0588 13.1673 11.336 13.1673 11.6666V16.3333C13.1673 16.6638 13.2793 16.9407 13.5033 17.1639C13.7265 17.3879 14.0034 17.4999 14.334 17.4999ZM14.334 26.8333C12.8951 26.8333 11.5387 26.5564 10.2647 26.0026C8.99143 25.448 7.87843 24.6944 6.92565 23.7416C5.97287 22.7888 5.21921 21.6758 4.66465 20.4026C4.11087 19.1286 3.83398 17.7721 3.83398 16.3333C3.83398 14.8944 4.11087 13.5379 4.66465 12.2639C5.21921 10.9907 5.97287 9.8777 6.92565 8.92492C7.87843 7.97214 8.99143 7.21886 10.2647 6.66508C11.5387 6.11053 12.8951 5.83325 14.334 5.83325C15.5395 5.83325 16.6965 6.0277 17.8048 6.41658C18.9132 6.80547 19.9534 7.36936 20.9256 8.10825L21.7715 7.26242C21.9854 7.04853 22.2479 6.94159 22.559 6.94159C22.8701 6.94159 23.1423 7.05825 23.3757 7.29158C23.5895 7.50547 23.6965 7.7777 23.6965 8.10825C23.6965 8.43881 23.5895 8.71103 23.3757 8.92492L22.559 9.74158C23.2979 10.7138 23.8618 11.7541 24.2507 12.8624C24.6395 13.9708 24.834 15.1277 24.834 16.3333C24.834 17.7721 24.5571 19.1286 24.0033 20.4026C23.4488 21.6758 22.6951 22.7888 21.7423 23.7416C20.7895 24.6944 19.6765 25.448 18.4033 26.0026C17.1293 26.5564 15.7729 26.8333 14.334 26.8333ZM14.334 24.4999C16.5895 24.4999 18.5145 23.7027 20.109 22.1083C21.7034 20.5138 22.5007 18.5888 22.5007 16.3333C22.5007 14.0777 21.7034 12.1527 20.109 10.5583C18.5145 8.96381 16.5895 8.16658 14.334 8.16658C12.0784 8.16658 10.1534 8.96381 8.55898 10.5583C6.96454 12.1527 6.16732 14.0777 6.16732 16.3333C6.16732 18.5888 6.96454 20.5138 8.55898 22.1083C10.1534 23.7027 12.0784 24.4999 14.334 24.4999Z" fill="white"/>
</svg>
