<svg width="20" height="20" viewBox="0 0 20 20" fill="none" xmlns="http://www.w3.org/2000/svg">
<path d="M12.6434 5.83339L7.1551 11.3217C6.99591 11.4755 6.86894 11.6594 6.7816 11.8627C6.69425 12.0661 6.64827 12.2848 6.64635 12.5061C6.64442 12.7274 6.68659 12.9468 6.77039 13.1516C6.8542 13.3565 6.97795 13.5426 7.13444 13.699C7.29093 13.8555 7.47701 13.9793 7.68184 14.0631C7.88667 14.1469 8.10613 14.1891 8.32743 14.1871C8.54873 14.1852 8.76743 14.1392 8.97077 14.0519C9.17411 13.9645 9.35802 13.8376 9.51176 13.6784L14.8568 8.19006C15.464 7.56138 15.7999 6.71937 15.7923 5.84538C15.7847 4.9714 15.4342 4.13535 14.8162 3.51733C14.1981 2.8993 13.3621 2.54874 12.4881 2.54114C11.6141 2.53355 10.7721 2.86953 10.1434 3.47672L4.7976 8.96422C3.85984 9.90198 3.33301 11.1739 3.33301 12.5001C3.33301 13.8263 3.85984 15.0981 4.7976 16.0359C5.73536 16.9737 7.00724 17.5005 8.33343 17.5005C9.65963 17.5005 10.9315 16.9737 11.8693 16.0359L17.0834 10.8334" stroke="#002029" stroke-width="1.4" stroke-linecap="round" stroke-linejoin="round"/>
</svg>
