<svg width="20" height="20" viewBox="0 0 20 20" fill="none" xmlns="http://www.w3.org/2000/svg">
<path d="M2.5 7.50016C2.5 7.05813 2.67559 6.63421 2.98816 6.32165C3.30072 6.00909 3.72464 5.8335 4.16667 5.8335H4.94167C5.21599 5.83354 5.48608 5.76587 5.72797 5.63649C5.96987 5.50711 6.17609 5.32002 6.32833 5.09183L7.005 4.07516C7.15725 3.84697 7.36347 3.65988 7.60536 3.5305C7.84726 3.40113 8.11735 3.33346 8.39167 3.3335H11.6083C11.8827 3.33346 12.1527 3.40113 12.3946 3.5305C12.6365 3.65988 12.8428 3.84697 12.995 4.07516L13.6717 5.09183C13.8239 5.32002 14.0301 5.50711 14.272 5.63649C14.5139 5.76587 14.784 5.83354 15.0583 5.8335H15.8333C16.2754 5.8335 16.6993 6.00909 17.0118 6.32165C17.3244 6.63421 17.5 7.05813 17.5 7.50016V15.0002C17.5 15.4422 17.3244 15.8661 17.0118 16.1787C16.6993 16.4912 16.2754 16.6668 15.8333 16.6668H4.16667C3.72464 16.6668 3.30072 16.4912 2.98816 16.1787C2.67559 15.8661 2.5 15.4422 2.5 15.0002V7.50016Z" stroke="white" stroke-width="1.4" stroke-linecap="round" stroke-linejoin="round"/>
<path d="M12.5 10.8335C12.5 11.4965 12.2366 12.1324 11.7678 12.6013C11.2989 13.0701 10.663 13.3335 10 13.3335C9.33696 13.3335 8.70107 13.0701 8.23223 12.6013C7.76339 12.1324 7.5 11.4965 7.5 10.8335C7.5 10.1705 7.76339 9.53457 8.23223 9.06573C8.70107 8.59689 9.33696 8.3335 10 8.3335C10.663 8.3335 11.2989 8.59689 11.7678 9.06573C12.2366 9.53457 12.5 10.1705 12.5 10.8335V10.8335Z" stroke="white" stroke-width="2" stroke-linecap="round" stroke-linejoin="round"/>
</svg>
