<svg width="20" height="20" viewBox="0 0 20 20" fill="none" xmlns="http://www.w3.org/2000/svg">
<path d="M3.3335 13.3333L7.15516 9.51158C7.46771 9.19913 7.89156 9.02361 8.3335 9.02361C8.77544 9.02361 9.19928 9.19913 9.51183 9.51158L13.3335 13.3333M11.6668 11.6666L12.9885 10.3449C13.301 10.0325 13.7249 9.85694 14.1668 9.85694C14.6088 9.85694 15.0326 10.0325 15.3452 10.3449L16.6668 11.6666M11.6668 6.66658H11.6752M5.00016 16.6666H15.0002C15.4422 16.6666 15.8661 16.491 16.1787 16.1784C16.4912 15.8659 16.6668 15.4419 16.6668 14.9999V4.99992C16.6668 4.55789 16.4912 4.13397 16.1787 3.82141C15.8661 3.50885 15.4422 3.33325 15.0002 3.33325H5.00016C4.55814 3.33325 4.13421 3.50885 3.82165 3.82141C3.50909 4.13397 3.3335 4.55789 3.3335 4.99992V14.9999C3.3335 15.4419 3.50909 15.8659 3.82165 16.1784C4.13421 16.491 4.55814 16.6666 5.00016 16.6666Z" stroke="#002029" stroke-width="1.4" stroke-linecap="round" stroke-linejoin="round"/>
</svg>
