<svg width="20" height="20" viewBox="0 0 20 20" fill="none" xmlns="http://www.w3.org/2000/svg">
<path d="M3.33325 13.3335L7.15492 9.51183C7.46746 9.19938 7.89131 9.02385 8.33325 9.02385C8.77519 9.02385 9.19904 9.19938 9.51158 9.51183L13.3333 13.3335M11.6666 11.6668L12.9883 10.3452C13.3008 10.0327 13.7246 9.85718 14.1666 9.85718C14.6085 9.85718 15.0324 10.0327 15.3449 10.3452L16.6666 11.6668M11.6666 6.66683H11.6749M4.99992 16.6668H14.9999C15.4419 16.6668 15.8659 16.4912 16.1784 16.1787C16.491 15.8661 16.6666 15.4422 16.6666 15.0002V5.00016C16.6666 4.55814 16.491 4.13421 16.1784 3.82165C15.8659 3.50909 15.4419 3.3335 14.9999 3.3335H4.99992C4.55789 3.3335 4.13397 3.50909 3.82141 3.82165C3.50885 4.13421 3.33325 4.55814 3.33325 5.00016V15.0002C3.33325 15.4422 3.50885 15.8661 3.82141 16.1787C4.13397 16.4912 4.55789 16.6668 4.99992 16.6668Z" stroke="white" stroke-width="1.4" stroke-linecap="round" stroke-linejoin="round"/>
</svg>
