<svg width="20" height="20" viewBox="0 0 20 20" fill="none" xmlns="http://www.w3.org/2000/svg">
<path d="M15.0002 16.6666H5.00016C4.55814 16.6666 4.13421 16.491 3.82165 16.1784C3.50909 15.8659 3.3335 15.4419 3.3335 14.9999V4.99992C3.3335 4.55789 3.50909 4.13397 3.82165 3.82141C4.13421 3.50885 4.55814 3.33325 5.00016 3.33325H15.0002C15.4422 3.33325 15.8661 3.50885 16.1787 3.82141C16.4912 4.13397 16.6668 4.55789 16.6668 4.99992V14.9999C16.6668 15.4419 16.4912 15.8659 16.1787 16.1784C15.8661 16.491 15.4422 16.6666 15.0002 16.6666Z" stroke="#002029" stroke-width="1.4" stroke-linecap="round" stroke-linejoin="round"/>
<path d="M7.32944 10.1563H7.22944V10.2563V10.843V10.943H7.32944H8.17703C8.14597 11.1944 8.03749 11.3841 7.87586 11.516C7.69058 11.6672 7.42546 11.7503 7.10203 11.7503C6.66213 11.7503 6.36047 11.5968 6.16655 11.3589C5.97005 11.1179 5.87443 10.7781 5.87443 10.3908C5.87443 10.0321 5.9694 9.7011 6.16494 9.4618C6.35804 9.22549 6.65722 9.06855 7.08974 9.06855C7.35177 9.06855 7.58437 9.12682 7.77304 9.24503C7.96073 9.36262 8.11071 9.54307 8.2035 9.79828L8.23844 9.89438L8.33374 9.85731L9.02519 9.58831L9.12447 9.54968L9.07966 9.45304C8.71147 8.65907 7.98555 8.23325 7.09588 8.23325C6.35402 8.23325 5.80151 8.48712 5.43541 8.89417C5.07089 9.29945 4.9 9.84666 4.9 10.4194C4.9 10.9941 5.07421 11.54 5.44116 11.9434C5.80957 12.3483 6.36343 12.5999 7.10203 12.5999C7.60144 12.5999 8.03603 12.4239 8.31615 12.128L8.35491 12.4545L8.36538 12.5427H8.45421H9.07191H9.17191V12.4427V10.2563V10.1563H9.07191H7.32944ZM9.92151 12.4427V12.5427H10.0215H10.8021H10.9021V12.4427V8.39907V8.29907H10.8021H10.0215H9.92151V8.39907V12.4427ZM11.8207 12.4427V12.5427H11.9207H12.7013H12.8013V12.4427V10.8543H14.7296H14.8296V10.7543V10.0875V9.98749H14.7296H12.8013V9.16585H15H15.1V9.06585V8.39907V8.29907H15H11.9207H11.8207V8.39907V12.4427Z" fill="#002029" stroke="#002029" stroke-width="0.2"/>
</svg>
