<svg width="20" height="20" viewBox="0 0 20 20" fill="none" xmlns="http://www.w3.org/2000/svg">
<path d="M14.9999 16.6668H4.99992C4.55789 16.6668 4.13397 16.4912 3.82141 16.1787C3.50885 15.8661 3.33325 15.4422 3.33325 15.0002V5.00016C3.33325 4.55814 3.50885 4.13421 3.82141 3.82165C4.13397 3.50909 4.55789 3.3335 4.99992 3.3335H14.9999C15.4419 3.3335 15.8659 3.50909 16.1784 3.82165C16.491 4.13421 16.6666 4.55814 16.6666 5.00016V15.0002C16.6666 15.4422 16.491 15.8661 16.1784 16.1787C15.8659 16.4912 15.4419 16.6668 14.9999 16.6668Z" stroke="white" stroke-width="1.4" stroke-linecap="round" stroke-linejoin="round"/>
<path d="M7.32944 10.1566H7.22944V10.2566V10.8432V10.9432H7.32944H8.17703C8.14597 11.1947 8.03749 11.3844 7.87586 11.5162C7.69058 11.6674 7.42546 11.7506 7.10203 11.7506C6.66213 11.7506 6.36047 11.597 6.16655 11.3592C5.97005 11.1181 5.87443 10.7783 5.87443 10.3911C5.87443 10.0324 5.9694 9.70134 6.16494 9.46205C6.35804 9.22574 6.65722 9.0688 7.08974 9.0688C7.35177 9.0688 7.58437 9.12707 7.77304 9.24527C7.96073 9.36287 8.11071 9.54331 8.2035 9.79852L8.23844 9.89463L8.33374 9.85755L9.02519 9.58855L9.12447 9.54993L9.07966 9.45329C8.71147 8.65931 7.98555 8.2335 7.09588 8.2335C6.35402 8.2335 5.80151 8.48737 5.43541 8.89441C5.07089 9.29969 4.9 9.8469 4.9 10.4197C4.9 10.9943 5.07421 11.5402 5.44116 11.9436C5.80957 12.3486 6.36343 12.6002 7.10203 12.6002C7.60144 12.6002 8.03603 12.4241 8.31615 12.1283L8.35491 12.4547L8.36538 12.5429H8.45421H9.07191H9.17191V12.4429V10.2566V10.1566H9.07191H7.32944ZM9.92151 12.4429V12.5429H10.0215H10.8021H10.9021V12.4429V8.39932V8.29932H10.8021H10.0215H9.92151V8.39932V12.4429ZM11.8207 12.4429V12.5429H11.9207H12.7013H12.8013V12.4429V10.8545H14.7296H14.8296V10.7545V10.0877V9.98773H14.7296H12.8013V9.1661H15H15.1V9.0661V8.39932V8.29932H15H11.9207H11.8207V8.39932V12.4429Z" fill="white" stroke="white" stroke-width="0.2"/>
</svg>
