<svg width="20" height="20" viewBox="0 0 20 20" fill="none" xmlns="http://www.w3.org/2000/svg">
<path fill-rule="evenodd" clip-rule="evenodd" d="M5.00005 20C3.3432 20 2.00005 18.6569 2.00005 17V11H1.00005C0.109147 11 -0.33702 9.92286 0.292945 9.29289L9.29294 0.292893C9.68347 -0.0976311 10.3166 -0.0976311 10.7072 0.292893L19.7072 9.29289C20.3371 9.92286 19.891 11 19.0001 11H18.0001V17C18.0001 18.6569 16.6569 20 15.0001 20H5.00005ZM10.0001 2.41421L3.35096 9.0633C3.73015 9.20542 4.00005 9.57119 4.00005 10V17C4.00005 17.5523 4.44777 18 5.00005 18L7.00005 17.999L7.00005 14C7.00005 12.8954 7.89548 12 9.00005 12H11.0001C12.1046 12 13.0001 12.8954 13.0001 14L13 17.999L15.0001 18C15.5523 18 16.0001 17.5523 16.0001 17V10C16.0001 9.57119 16.27 9.20542 16.6491 9.0633L10.0001 2.41421ZM11.0001 14H9.00005L9.00005 17.999H11L11.0001 14Z" fill="#002029"/>
</svg>
