<svg width="16" height="20" viewBox="0 0 16 20" fill="none" xmlns="http://www.w3.org/2000/svg">
<path fill-rule="evenodd" clip-rule="evenodd" d="M1.00031 18C0.296057 18 -0.17495 17.2979 0.0600939 16.6586L0.105886 16.5528L1.2613 14.242C1.6987 13.3672 1.94738 12.4115 1.99274 11.4369L2.00031 11.1115V8C2.00031 5.02694 4.1627 2.55893 7.0005 2.08293L7.00031 1C7.00031 0.447715 7.44803 0 8.00031 0C8.5526 0 9.00031 0.447715 9.00031 1L9.00112 2.08309C11.7596 2.54627 13.8797 4.89172 13.9953 7.75347L14.0003 8V11.1115C14.0003 12.0895 14.2053 13.0555 14.6005 13.9474L14.7393 14.242L15.8947 16.5528C16.2097 17.1827 15.7923 17.918 15.1154 17.9936L15.0003 18H10.0003C10.0003 19.1046 9.10488 20 8.00031 20C6.89574 20 6.00031 19.1046 6.00031 18H1.00031ZM8.00037 4C5.85818 4 4.1093 5.68397 4.00527 7.80036L4.00037 8V11.1115C4.00037 12.3922 3.72703 13.6569 3.20018 14.8213L3.05022 15.1364L2.61841 16H13.3823L12.9505 15.1364C12.3778 13.9908 12.0567 12.7374 12.0071 11.4603L12.0004 11.1115V8C12.0004 5.79086 10.2095 4 8.00037 4Z" fill="#002029"/>
</svg>
