<svg width="42" height="36" viewBox="0 0 42 36" fill="none" xmlns="http://www.w3.org/2000/svg">
<path d="M35.4666 26.4658V16.8975C35.4666 8.66985 28.9427 2 20.8952 2C12.8476 2 6.32373 8.66985 6.32373 16.8975V26.4658" stroke="#6741FF" stroke-width="3" stroke-linecap="round"/>
<path fill-rule="evenodd" clip-rule="evenodd" d="M20.9999 6.28571C15.0826 6.28571 10.2856 11.0552 10.2856 16.9388V24.7755C10.2856 30.659 15.0826 35.4286 20.9999 35.4286C26.9173 35.4286 31.7142 30.659 31.7142 24.7755V16.9388C31.7142 11.0552 26.9173 6.28571 20.9999 6.28571ZM16.6398 16.5714C15.9708 16.5714 15.4286 17.133 15.4286 17.8258V25.6028C15.4286 26.2956 15.9708 26.8572 16.6398 26.8572C17.3087 26.8572 17.8509 26.2956 17.8509 25.6028V17.8258C17.8509 17.133 17.3087 16.5714 16.6398 16.5714ZM24.1491 17.8258C24.1491 17.133 24.6913 16.5714 25.3602 16.5714C26.0292 16.5714 26.5714 17.133 26.5714 17.8258V25.6028C26.5714 26.2956 26.0292 26.8572 25.3602 26.8572C24.6913 26.8572 24.1491 26.2956 24.1491 25.6028V17.8258ZM19.7888 19.5819C19.7888 18.8891 20.3311 18.3275 21 18.3275C21.6689 18.3275 22.2112 18.8891 22.2112 19.5819V23.8467C22.2112 24.5395 21.6689 25.1011 21 25.1011C20.3311 25.1011 19.7888 24.5395 19.7888 23.8467V19.5819Z" fill="#6741FF"/>
<rect x="39" y="17.4286" width="3" height="9" rx="1.5" fill="#6741FF"/>
<rect y="17.4286" width="3" height="9" rx="1.5" fill="#6741FF"/>
</svg>
