<svg width="24" height="24" viewBox="0 0 24 24" fill="none" xmlns="http://www.w3.org/2000/svg">
<path d="M7.425 17.075L13.675 14.15C13.775 14.1 13.8667 14.0333 13.95 13.95C14.0333 13.8667 14.1 13.775 14.15 13.675L17.075 7.425C17.1417 7.275 17.1123 7.13767 16.987 7.013C16.8617 6.88833 16.7243 6.859 16.575 6.925L10.325 9.85C10.225 9.9 10.1333 9.96667 10.05 10.05C9.96667 10.1333 9.9 10.225 9.85 10.325L6.925 16.575C6.85833 16.725 6.88767 16.8627 7.013 16.988C7.13833 17.1133 7.27567 17.1423 7.425 17.075ZM12 13C11.7167 13 11.479 12.9043 11.287 12.713C11.095 12.5217 10.9993 12.284 11 12C11 11.7167 11.096 11.479 11.288 11.287C11.48 11.095 11.7173 10.9993 12 11C12.2833 11 12.521 11.096 12.713 11.288C12.905 11.48 13.0007 11.7173 13 12C13 12.2833 12.904 12.521 12.712 12.713C12.52 12.905 12.2827 13.0007 12 13ZM12 22C10.6167 22 9.31667 21.7377 8.1 21.213C6.88333 20.6883 5.825 19.9757 4.925 19.075C4.025 18.175 3.31267 17.1167 2.788 15.9C2.26333 14.6833 2.00067 13.3833 2 12C2 10.6167 2.26267 9.31667 2.788 8.1C3.31333 6.88333 4.02567 5.825 4.925 4.925C5.825 4.025 6.88333 3.31233 8.1 2.787C9.31667 2.26167 10.6167 1.99933 12 2C13.3833 2 14.6833 2.26267 15.9 2.788C17.1167 3.31333 18.175 4.02567 19.075 4.925C19.975 5.825 20.6877 6.88333 21.213 8.1C21.7383 9.31667 22.0007 10.6167 22 12C22 13.3833 21.7373 14.6833 21.212 15.9C20.6867 17.1167 19.9743 18.175 19.075 19.075C18.175 19.975 17.1167 20.6877 15.9 21.213C14.6833 21.7383 13.3833 22.0007 12 22Z" fill="#6741FF"/>
</svg>
