<svg width="24" height="24" viewBox="0 0 24 24" fill="none" xmlns="http://www.w3.org/2000/svg">
<path fill-rule="evenodd" clip-rule="evenodd" d="M2.3999 11.4C2.3999 13.7195 4.28031 15.6 6.5999 15.6H10.7999V18.7029L9.24843 17.1514C8.7798 16.6828 8.02 16.6828 7.55137 17.1514C7.08275 17.6201 7.08275 18.3798 7.55137 18.8485L11.1514 22.4485C11.62 22.9171 12.3798 22.9171 12.8484 22.4485L16.4484 18.8485C16.9171 18.3798 16.9171 17.6201 16.4484 17.1514C15.9798 16.6828 15.22 16.6828 14.7514 17.1514L13.1999 18.7029V15.6H16.1999C19.1822 15.6 21.5999 13.1823 21.5999 10.2C21.5999 7.21761 19.1822 4.79995 16.1999 4.79995C15.9493 4.79995 15.7028 4.81702 15.4613 4.85005C14.9461 2.7544 13.0545 1.19995 10.7999 1.19995C8.14894 1.19995 5.9999 3.34898 5.9999 5.99995C5.9999 6.42262 6.05453 6.83254 6.15712 7.22301C4.04566 7.44424 2.3999 9.2299 2.3999 11.4ZM13.1999 15.6H10.7999V9.59995C10.7999 8.93721 11.3372 8.39995 11.9999 8.39995C12.6626 8.39995 13.1999 8.93721 13.1999 9.59995V15.6Z" fill="#6741FF"/>
</svg>
