<svg width="24" height="24" viewBox="0 0 24 24" fill="none" xmlns="http://www.w3.org/2000/svg">
<path d="M12.8484 2.7515C12.3798 2.28287 11.62 2.28287 11.1514 2.7515L2.75137 11.1515C2.28275 11.6201 2.28275 12.3799 2.75137 12.8486C3.22 13.3172 3.9798 13.3172 4.44843 12.8486L4.7999 12.4971V20.4C4.7999 21.0628 5.33716 21.6 5.9999 21.6H8.3999C9.06264 21.6 9.5999 21.0628 9.5999 20.4V18C9.5999 17.3373 10.1372 16.8 10.7999 16.8H13.1999C13.8626 16.8 14.3999 17.3373 14.3999 18V20.4C14.3999 21.0628 14.9372 21.6 15.5999 21.6H17.9999C18.6626 21.6 19.1999 21.0628 19.1999 20.4V12.4971L19.5514 12.8486C20.02 13.3172 20.7798 13.3172 21.2484 12.8486C21.7171 12.3799 21.7171 11.6201 21.2484 11.1515L12.8484 2.7515Z" fill="#6741FF"/>
</svg>
